<svg width="25" height="24" viewBox="0 0 25 24" fill="none" xmlns="http://www.w3.org/2000/svg">
<g id="auto-fix">
<path id="Vector" d="M7.99859 5.6L5.49859 7L6.89859 4.5L5.49859 2L7.99859 3.4L10.4986 2L9.09859 4.5L10.4986 7L7.99859 5.6ZM19.9986 15.4L22.4986 14L21.0986 16.5L22.4986 19L19.9986 17.6L17.4986 19L18.8986 16.5L17.4986 14L19.9986 15.4ZM22.4986 2L21.0986 4.5L22.4986 7L19.9986 5.6L17.4986 7L18.8986 4.5L17.4986 2L19.9986 3.4L22.4986 2ZM13.8386 12.78L16.2786 10.34L14.1586 8.22L11.7186 10.66L13.8386 12.78ZM14.8686 7.29L17.2086 9.63C17.5986 10 17.5986 10.65 17.2086 11.04L5.53859 22.71C5.14859 23.1 4.49859 23.1 4.12859 22.71L1.78859 20.37C1.39859 20 1.39859 19.35 1.78859 18.96L13.4586 7.29C13.8486 6.9 14.4986 6.9 14.8686 7.29Z" fill="#0099D8"/>
</g>
</svg>
