<svg width="200" height="28" viewBox="0 0 200 28" fill="none" xmlns="http://www.w3.org/2000/svg">
<mask id="mask0_6295_6799" style="mask-type:luminance" maskUnits="userSpaceOnUse" x="0" y="0" width="129" height="28">
<path d="M128.966 0.528469H0V27.4715H128.966V0.528469Z" fill="white"/>
</mask>
<g mask="url(#mask0_6295_6799)">
<path d="M2.36404 20.2117C3.70277 21.3547 5.71236 21.926 8.39281 21.9254C10.5307 22.0597 12.6523 21.4777 14.4225 20.2714C15.1342 19.6625 15.6962 18.8979 16.065 18.0368C16.4338 17.1758 16.5995 16.2414 16.5492 15.306C16.5706 14.3582 16.3465 13.4209 15.8989 12.5851C15.4371 11.7696 14.7452 11.1084 13.9095 10.6841C13.414 10.4355 12.8957 10.2354 12.3617 10.0864C11.6365 9.86514 8.03152 8.88206 7.66665 8.78393C5.65765 8.29506 4.38195 7.6242 4.37214 6.43682C4.47651 4.13878 6.61844 3.955 7.80136 3.955C8.82381 3.89973 9.83758 4.16887 10.698 4.72398C11.0572 4.97658 11.3484 5.31413 11.5456 5.70652C11.7428 6.09891 11.8399 6.53398 11.8283 6.97298H15.8427C15.836 6.07118 15.6436 5.18043 15.2775 4.35623C14.9115 3.53204 14.3796 2.79205 13.7151 2.1824C12.1198 0.984981 10.1487 0.397996 8.15819 0.527586C5.59609 0.527586 3.64567 1.05957 2.30693 2.12355C1.6429 2.67477 1.11584 3.37256 0.767233 4.16204C0.418625 4.95152 0.257976 5.81112 0.297936 6.67321C0.244273 7.57001 0.422714 8.46551 0.816033 9.27324C1.20935 10.081 1.80428 10.7737 2.54335 11.2845C3.80684 11.9384 5.16216 12.3971 6.56313 12.6449L8.16087 12.9937C10.9326 13.669 12.5232 14.5254 12.4733 15.8966C12.4855 16.2656 12.4054 16.6319 12.2402 16.9621C12.0751 17.2924 11.8302 17.5762 11.5276 17.7878C10.6827 18.2646 9.71934 18.4906 8.75054 18.4391C7.60732 18.5026 6.47218 18.2133 5.49885 17.6103C5.09932 17.3261 4.76936 16.9551 4.53374 16.5251C4.29812 16.0951 4.16297 15.6173 4.13841 15.1276H-2.36348e-05C-0.00799064 16.0975 0.200024 17.057 0.608922 17.9365C1.01782 18.816 1.61736 19.5926 2.36404 20.2117Z" fill="#003057"/>
<path d="M28.2044 13.8082C28.2044 12.264 27.9216 8.99626 24.76 8.99626C21.7581 8.99626 21.4334 12.1846 21.4334 13.8082C21.4334 17.919 23.7698 18.4418 24.8786 18.4418C27.7494 18.4418 28.2044 15.3953 28.2044 13.8082ZM21.4343 25.451C21.4363 25.7166 21.3855 25.9801 21.2847 26.2259C21.184 26.4718 21.0353 26.6951 20.8475 26.883C20.6596 27.0708 20.4363 27.2195 20.1904 27.3202C19.9446 27.4209 19.6811 27.4718 19.4155 27.4698H17.3958V12.6788C17.6295 8.7429 19.0613 5.60719 25.0383 5.39309C26.0816 5.36284 27.1192 5.55771 28.0804 5.96442C29.0416 6.37113 29.9039 6.98013 30.6086 7.75C31.824 9.46067 32.4217 11.5337 32.3036 13.6289C32.4039 15.7908 31.7756 17.9239 30.5194 19.6862C29.992 20.4 29.3017 20.9773 28.5059 21.3701C27.7101 21.7628 26.832 21.9597 25.9447 21.9441C24.3275 21.9979 22.7384 21.5117 21.428 20.5623C21.428 20.697 21.428 25.4474 21.428 25.4474" fill="#003057"/>
<path d="M40.634 18.3989C39.6108 18.3472 37.6607 18.1465 37.4814 14.7342H47.7235C47.7235 14.6298 47.7235 13.5067 47.7235 13.5049C47.7961 11.371 47.1279 9.27767 45.8323 7.58049C45.1224 6.85189 44.2638 6.28473 43.3151 5.91759C42.3664 5.55045 41.3497 5.39196 40.3343 5.45286C39.3492 5.39983 38.3648 5.56875 37.4538 5.94721C36.5428 6.32566 35.7284 6.90397 35.0709 7.63938C33.7617 9.32138 33.1103 11.4228 33.2385 13.5504C33.2385 16.191 33.869 18.2205 35.1298 19.6389C35.7864 20.3744 36.5999 20.9528 37.5102 21.3314C38.4205 21.71 39.4042 21.8792 40.3887 21.8264C42.0332 21.8896 43.6531 21.4117 44.9999 20.4659C46.259 19.5448 47.1427 18.1995 47.488 16.6781H43.9294C43.4049 18.1634 42.0667 18.4694 40.6287 18.3962M40.4502 8.87938C42.99 8.84548 43.3843 11.007 43.4646 12.0713H37.4368C37.4368 12.0713 37.3859 8.93647 40.4511 8.87938" fill="#003057"/>
<path d="M59.0193 16.6853H62.9044C62.525 18.212 61.627 19.5594 60.3639 20.4972C59.1008 21.435 57.5512 21.9049 55.98 21.8264C50.1109 21.8264 48.6648 17.1161 48.6648 14.0214C48.6648 10.9268 49.2143 5.64019 55.7498 5.45731C57.3431 5.33297 58.9282 5.78304 60.2184 6.72603C61.5086 7.66903 62.4187 9.04267 62.784 10.5985H58.6482C58.6482 10.5985 58.2468 8.82945 55.7846 8.88565C53.3224 8.94185 52.6792 11.2533 52.6792 13.4505C52.6792 15.6477 53.2261 18.399 55.9595 18.399C58.559 18.4775 58.7883 17.0724 59.0176 16.6853" fill="#003057"/>
<path d="M67.9188 10.0106H70.3489V5.86768H67.926V3.20833C67.9425 2.94489 67.9038 2.68091 67.8125 2.43327C67.7211 2.18563 67.5791 1.95979 67.3954 1.77019C67.2118 1.58059 66.9906 1.43139 66.746 1.33217C66.5014 1.23296 66.2388 1.18589 65.975 1.19398H63.8464V18.572C63.8464 20.3847 64.5476 21.4686 66.0704 21.4686H67.9197L67.9188 10.0106Z" fill="#003057"/>
<path d="M74.6782 21.499V13.4014C74.6379 12.9349 74.6902 12.465 74.8321 12.0187C74.974 11.5724 75.2028 11.1586 75.5051 10.801C75.8527 10.5014 76.2564 10.274 76.6928 10.132C77.1291 9.99001 77.5894 9.93631 78.0467 9.97401H79.4071V5.77671C78.163 5.75392 76.9211 5.89336 75.713 6.19153C74.7614 6.45373 73.8686 6.89486 73.0822 7.49131C72.263 8.16149 71.6232 9.02472 71.2204 10.0034C70.7329 11.2343 70.5016 12.5518 70.5406 13.8751V21.499H74.6782Z" fill="#003057"/>
<path d="M80.5767 5.80434H84.7151V15.8529C84.6896 16.2165 84.7424 16.5814 84.87 16.9229C84.9975 17.2644 85.1968 17.5746 85.4545 17.8325C85.7121 18.0904 86.0221 18.29 86.3634 18.4179C86.7048 18.5458 87.0696 18.5989 87.4333 18.5738C87.79 18.5998 88.1482 18.5516 88.4853 18.4322C88.8224 18.3129 89.1311 18.1249 89.3918 17.8802C89.6526 17.6355 89.8599 17.3394 90.0005 17.0106C90.141 16.6818 90.2119 16.3274 90.2086 15.9698V7.75536C90.2086 7.75536 90.3487 5.80523 92.1427 5.80523H94.2935C94.2935 5.80523 94.2935 15.0491 94.2935 15.1374C94.265 15.6459 94.8359 21.8282 87.4378 21.8014C80.1083 21.8014 80.6284 15.5487 80.5811 15.1803L80.5767 5.80434Z" fill="#003057"/>
<path d="M109.228 21.5525H105.129V11.4549C105.166 11.0816 105.119 10.7047 104.991 10.3521C104.862 9.99956 104.657 9.68029 104.389 9.41795C104.12 9.15561 103.797 8.95691 103.441 8.83651C103.086 8.71612 102.708 8.67712 102.336 8.72241C101.971 8.69776 101.605 8.75153 101.262 8.88015C100.919 9.00878 100.608 9.20927 100.35 9.46812C100.091 9.72698 99.8906 10.0382 99.7622 10.3809C99.6338 10.7236 99.5803 11.0898 99.6051 11.4549V21.5534H95.4453V12.2854C95.4453 9.59309 96.2482 7.94986 97.5551 6.88024C98.9086 5.89586 100.544 5.37489 102.217 5.39489C103.118 5.39385 104.015 5.49381 104.893 5.69286C105.769 5.89374 106.584 6.30117 107.27 6.88113C107.88 6.35869 108.601 5.98272 109.379 5.78205C110.201 5.54612 111.049 5.41663 111.904 5.39669C116.975 5.36992 119.011 7.69204 119.18 8.43784V21.5516H116.832C116.566 21.5556 116.302 21.5061 116.055 21.406C115.808 21.306 115.584 21.1574 115.396 20.9692C115.208 20.7809 115.059 20.5568 114.959 20.3101C114.859 20.0633 114.81 19.799 114.814 19.5328V11.4549C114.823 10.3094 114.423 8.72241 112.02 8.72241C111.65 8.68699 111.276 8.73283 110.926 8.85677C110.575 8.9807 110.255 9.17974 109.99 9.43995C109.724 9.70016 109.518 10.0153 109.386 10.3633C109.255 10.7113 109.201 11.0839 109.228 11.4549V21.5525Z" fill="#003057"/>
<path d="M120.332 8.428V21.5329L128.966 14.9813L120.332 8.428Z" fill="#0D6EFD"/>
</g>
<path d="M137.887 0.673441V27.3266" stroke="#003057" stroke-width="0.892095"/>
<path d="M150.802 11.2977H148.674L148.274 12.4856H147.011L149.074 6.70699H150.438L152.484 12.4856H151.175L150.802 11.2977ZM150.465 10.3019L149.744 8.02815L148.999 10.3019H150.465ZM156.64 10.2588V6.70699H157.867V10.2588C157.867 10.873 157.772 11.3513 157.581 11.6937C157.225 12.3209 156.547 12.6345 155.546 12.6345C154.545 12.6345 153.866 12.3209 153.507 11.6937C153.317 11.3513 153.221 10.873 153.221 10.2588V6.70699H154.448V10.2588C154.448 10.6561 154.495 10.9462 154.589 11.1291C154.736 11.4532 155.055 11.6153 155.546 11.6153C156.035 11.6153 156.352 11.4532 156.499 11.1291C156.593 10.9462 156.64 10.6561 156.64 10.2588ZM163.222 6.70699V7.7302H161.493V12.4856H160.278V7.7302H158.541V6.70699H163.222ZM167.378 12.4856V9.90599H165.12V12.4856H163.924V6.70699H165.12V8.91022H167.378V6.70699H168.577V12.4856H167.378ZM172.29 12.6463C171.464 12.6463 170.833 12.4215 170.396 11.972C169.811 11.4205 169.518 10.626 169.518 9.58844C169.518 8.52995 169.811 7.73543 170.396 7.20488C170.833 6.75534 171.464 6.53058 172.29 6.53058C173.116 6.53058 173.747 6.75534 174.183 7.20488C174.766 7.73543 175.058 8.52995 175.058 9.58844C175.058 10.626 174.766 11.4205 174.183 11.972C173.747 12.4215 173.116 12.6463 172.29 12.6463ZM173.431 11.0939C173.71 10.741 173.85 10.2392 173.85 9.58844C173.85 8.94028 173.709 8.43978 173.427 8.08695C173.147 7.73151 172.768 7.55379 172.29 7.55379C171.812 7.55379 171.43 7.7302 171.145 8.08303C170.86 8.43586 170.718 8.93767 170.718 9.58844C170.718 10.2392 170.86 10.741 171.145 11.0939C171.43 11.4467 171.812 11.6231 172.29 11.6231C172.768 11.6231 173.148 11.4467 173.431 11.0939ZM178.437 10.2196H177.19V12.4856H176.01V6.70699H178.845C179.25 6.71483 179.561 6.76449 179.778 6.85597C179.997 6.94744 180.183 7.08204 180.334 7.25976C180.46 7.40612 180.559 7.56816 180.632 7.74588C180.705 7.92361 180.742 8.12616 180.742 8.35354C180.742 8.62796 180.673 8.89846 180.534 9.16505C180.396 9.42902 180.167 9.61589 179.848 9.72566C180.115 9.83281 180.303 9.9857 180.413 10.1843C180.525 10.3804 180.581 10.6809 180.581 11.086V11.4741C180.581 11.7381 180.592 11.9171 180.613 12.0112C180.644 12.1602 180.717 12.27 180.832 12.3405V12.4856H179.503C179.467 12.3575 179.441 12.2543 179.425 12.1759C179.393 12.0138 179.376 11.8479 179.374 11.678L179.366 11.1409C179.361 10.7724 179.293 10.5267 179.162 10.4039C179.034 10.281 178.792 10.2196 178.437 10.2196ZM179.17 9.16897C179.41 9.0592 179.531 8.84227 179.531 8.51819C179.531 8.16797 179.414 7.93275 179.182 7.81253C179.051 7.74458 178.855 7.7106 178.594 7.7106H177.19V9.26305H178.558C178.83 9.26305 179.034 9.23169 179.17 9.16897ZM181.691 6.70699H182.89V12.4856H181.691V6.70699ZM188.108 12.4856H183.612V11.4663L186.595 7.7302H183.686V6.70699H188.101V7.67532L185.078 11.4663H188.108V12.4856ZM192.95 9.96088H190.143V11.4467H193.342V12.4856H188.963V6.70699H193.201V7.7302H190.143V8.95727H192.95V9.96088ZM196.772 12.4856H194.283V6.70699H196.772C197.13 6.71222 197.428 6.75404 197.666 6.83244C198.071 6.96574 198.399 7.2101 198.65 7.56555C198.851 7.85304 198.989 8.16405 199.062 8.49859C199.135 8.83312 199.172 9.15198 199.172 9.45515C199.172 10.2235 199.017 10.8743 198.709 11.4075C198.291 12.1262 197.645 12.4856 196.772 12.4856ZM197.67 8.18104C197.485 7.86741 197.117 7.7106 196.568 7.7106H195.455V11.482H196.568C197.138 11.482 197.536 11.201 197.76 10.6391C197.883 10.3307 197.945 9.96349 197.945 9.53748C197.945 8.94943 197.853 8.49728 197.67 8.18104Z" fill="#003057"/>
<path d="M149.873 18.2485H148.627V20.5144H147.447V14.7358H150.281C150.686 14.7437 150.997 14.7933 151.214 14.8848C151.434 14.9763 151.619 15.1109 151.771 15.2886C151.896 15.435 151.996 15.597 152.069 15.7747C152.142 15.9525 152.178 16.155 152.178 16.3824C152.178 16.6568 152.109 16.9273 151.971 17.1939C151.832 17.4579 151.604 17.6447 151.285 17.7545C151.551 17.8617 151.739 18.0146 151.849 18.2132C151.962 18.4092 152.018 18.7098 152.018 19.1149V19.503C152.018 19.7669 152.028 19.946 152.049 20.0401C152.08 20.189 152.154 20.2988 152.269 20.3694V20.5144H150.94C150.903 20.3864 150.877 20.2831 150.861 20.2047C150.83 20.0427 150.813 19.8767 150.81 19.7068L150.802 19.1698C150.797 18.8012 150.729 18.5556 150.599 18.4327C150.471 18.3099 150.229 18.2485 149.873 18.2485ZM150.606 17.1978C150.847 17.088 150.967 16.8711 150.967 16.547C150.967 16.1968 150.851 15.9616 150.618 15.8414C150.488 15.7734 150.291 15.7395 150.03 15.7395H148.627V17.2919H149.995C150.267 17.2919 150.471 17.2605 150.606 17.1978ZM157.244 17.9897H154.437V19.4755H157.636V20.5144H153.257V14.7358H157.494V15.7591H154.437V16.9861H157.244V17.9897ZM160.674 19.6794C160.959 19.6794 161.19 19.648 161.368 19.5853C161.705 19.4651 161.873 19.2416 161.873 18.9149C161.873 18.7241 161.79 18.5765 161.623 18.4719C161.455 18.37 161.193 18.2798 160.835 18.2014L160.223 18.0642C159.622 17.9283 159.206 17.7806 158.976 17.6212C158.587 17.3546 158.392 16.9378 158.392 16.3706C158.392 15.8531 158.58 15.4232 158.957 15.0808C159.333 14.7385 159.886 14.5673 160.615 14.5673C161.224 14.5673 161.743 14.7293 162.171 15.0534C162.603 15.3749 162.829 15.8427 162.85 16.4569H161.689C161.668 16.1093 161.517 15.8623 161.234 15.7159C161.046 15.6192 160.812 15.5709 160.533 15.5709C160.222 15.5709 159.973 15.6336 159.788 15.7591C159.602 15.8845 159.51 16.0596 159.51 16.2844C159.51 16.4909 159.601 16.6451 159.784 16.747C159.902 16.8149 160.152 16.8946 160.537 16.9861L161.532 17.2253C161.969 17.3298 162.298 17.4696 162.52 17.6447C162.865 17.9165 163.038 18.3099 163.038 18.8248C163.038 19.3527 162.835 19.7918 162.43 20.142C162.028 20.4896 161.458 20.6634 160.721 20.6634C159.968 20.6634 159.376 20.4922 158.945 20.1498C158.514 19.8048 158.298 19.3318 158.298 18.7307H159.451C159.487 18.9946 159.559 19.192 159.666 19.3226C159.862 19.5605 160.198 19.6794 160.674 19.6794ZM167.954 17.9897H165.147V19.4755H168.346V20.5144H163.967V14.7358H168.205V15.7591H165.147V16.9861H167.954V17.9897ZM169.287 14.7358H170.494V19.4755H173.356V20.5144H169.287V14.7358ZM174.195 14.7358H175.403V19.4755H178.264V20.5144H174.195V14.7358ZM183.126 17.9897H180.319V19.4755H183.518V20.5144H179.139V14.7358H183.377V15.7591H180.319V16.9861H183.126V17.9897ZM186.913 18.2485H185.666V20.5144H184.486V14.7358H187.32C187.726 14.7437 188.037 14.7933 188.253 14.8848C188.473 14.9763 188.659 15.1109 188.81 15.2886C188.936 15.435 189.035 15.597 189.108 15.7747C189.181 15.9525 189.218 16.155 189.218 16.3824C189.218 16.6568 189.149 16.9273 189.01 17.1939C188.872 17.4579 188.643 17.6447 188.324 17.7545C188.591 17.8617 188.779 18.0146 188.889 18.2132C189.001 18.4092 189.057 18.7098 189.057 19.1149V19.503C189.057 19.7669 189.068 19.946 189.088 20.0401C189.12 20.189 189.193 20.2988 189.308 20.3694V20.5144H187.979C187.942 20.3864 187.916 20.2831 187.901 20.2047C187.869 20.0427 187.852 19.8767 187.85 19.7068L187.842 19.1698C187.837 18.8012 187.769 18.5556 187.638 18.4327C187.51 18.3099 187.268 18.2485 186.913 18.2485ZM187.646 17.1978C187.886 17.088 188.006 16.8711 188.006 16.547C188.006 16.1968 187.89 15.9616 187.658 15.8414C187.527 15.7734 187.331 15.7395 187.07 15.7395H185.666V17.2919H187.034C187.306 17.2919 187.51 17.2605 187.646 17.1978Z" fill="#003057"/>
</svg>
