<svg width="103" height="32" viewBox="0 0 103 32" fill="none" xmlns="http://www.w3.org/2000/svg">
<g clip-path="url(#clip0_6295_5682)">
<mask id="mask0_6295_5682" style="mask-type:luminance" maskUnits="userSpaceOnUse" x="0" y="0" width="103" height="22">
<path d="M102.376 0H0V21.4155H102.376V0Z" fill="white"/>
</mask>
<g mask="url(#mask0_6295_5682)">
<path d="M1.8765 15.6446C3.25939 16.6525 4.95596 17.1353 6.66234 17.0063C8.35986 17.1131 10.0445 16.6503 11.4492 15.6913C12.0146 15.2069 12.461 14.5991 12.754 13.9147C13.047 13.2303 13.1787 12.4877 13.1389 11.7443C13.156 10.9913 12.9783 10.2467 12.623 9.5825C12.2565 8.93458 11.7072 8.40906 11.0436 8.07168C10.6504 7.87414 10.239 7.71504 9.81513 7.59658C9.23864 7.42065 6.37708 6.63844 6.08784 6.5619C4.49753 6.17327 3.48073 5.6405 3.47278 4.69626C3.55528 2.87038 5.25591 2.72229 6.19519 2.72229C7.00681 2.6785 7.8115 2.89244 8.49418 3.33356C8.77907 3.53507 9.00979 3.80382 9.16584 4.11593C9.32189 4.42804 9.39845 4.77386 9.38873 5.12267H12.5694C12.564 4.40602 12.4111 3.69814 12.1205 3.04306C11.8298 2.38799 11.4074 1.79971 10.8796 1.31485C9.61388 0.362937 8.04895 -0.103912 6.46853 -0.00110086C4.82166 -0.113364 3.1851 0.333512 1.82383 1.26717C1.29729 1.70618 0.87967 2.26123 0.603742 2.88879C0.327814 3.51635 0.201083 4.19933 0.233516 4.88411C0.190872 5.59668 0.332546 6.30821 0.644873 6.9501C0.957201 7.59199 1.42965 8.14259 2.01666 8.54879C3.01931 9.06825 4.09513 9.43222 5.20722 9.62821L6.47548 9.90454C8.67607 10.4413 9.93838 11.1221 9.89862 12.2115C9.90857 12.5048 9.84515 12.7959 9.7141 13.0585C9.58306 13.3211 9.38856 13.5469 9.1482 13.7153C8.47765 14.0943 7.71281 14.274 6.94363 14.2331C6.03509 14.2843 5.13282 14.0546 4.35938 13.5752C4.04229 13.3488 3.7805 13.0536 3.59358 12.7118C3.40666 12.37 3.29944 11.9903 3.27995 11.6012H-6.12499e-05C-0.0065266 12.3718 0.1585 13.1342 0.483063 13.8332C0.807627 14.5322 1.2836 15.1502 1.8765 15.6426" fill="#003057"/>
<path d="M22.3895 10.5567C22.3895 9.32915 22.1649 6.73199 19.6552 6.73199C17.2697 6.73199 17.0143 9.26653 17.0143 10.5567C17.0143 13.8238 18.87 14.2392 19.7496 14.2392C22.0287 14.2392 22.3895 11.818 22.3895 10.5567ZM17.0143 19.8113C17.0163 20.0224 16.9762 20.2318 16.8964 20.4272C16.8166 20.6227 16.6988 20.8003 16.5496 20.9497C16.4005 21.0991 16.2231 21.2174 16.0278 21.2975C15.8325 21.3776 15.6232 21.4181 15.4121 21.4165H13.8098V9.65815C13.9957 6.53022 15.1318 4.03742 19.8729 3.86745C20.7013 3.84353 21.5252 3.99848 22.2883 4.32181C23.0514 4.64513 23.7358 5.12921 24.2949 5.74102C25.2604 7.10051 25.7353 8.74774 25.6417 10.4126C25.7222 12.1308 25.2242 13.8264 24.2273 15.2282C23.8092 15.7954 23.2615 16.2543 22.6298 16.5666C21.9982 16.8788 21.301 17.0354 20.5965 17.0233C19.3132 17.0669 18.0519 16.6822 17.0113 15.9299C17.0113 16.0373 17.0113 19.8133 17.0113 19.8133" fill="#003057"/>
<path d="M32.2564 14.2045C31.4433 14.1627 29.8957 14.0057 29.7536 11.2922H37.8841C37.8841 11.2097 37.8841 10.3171 37.8841 10.3151C37.942 8.61924 37.4118 6.9555 36.3832 5.60586C35.8199 5.02715 35.1384 4.57664 34.3853 4.28505C33.6321 3.99347 32.825 3.86764 32.0188 3.91615C31.2373 3.87462 30.4564 4.00918 29.7339 4.3099C29.0113 4.61061 28.3655 5.06983 27.8442 5.65358C26.805 6.99112 26.2881 8.66118 26.3901 10.3519C26.274 12.0953 26.8088 13.8197 27.891 15.1914C28.4119 15.7758 29.0575 16.2354 29.7802 16.5363C30.5028 16.8372 31.2839 16.9718 32.0655 16.9299C33.371 16.9802 34.6569 16.601 35.7262 15.8504C36.726 15.1178 37.4274 14.0486 37.7012 12.8398H34.8764C34.4599 14.0206 33.3974 14.2631 32.2544 14.2064M32.1142 6.64154C34.1299 6.61471 34.444 8.33125 34.5066 9.17809H29.7208C29.7064 8.85324 29.7574 8.52879 29.8707 8.224C29.984 7.91921 30.1573 7.6403 30.3805 7.40374C30.6036 7.16719 30.8719 6.97782 31.1695 6.8469C31.4672 6.71597 31.7891 6.64615 32.1142 6.64154Z" fill="#003057"/>
<path d="M46.8514 12.8428H49.9326C49.6321 14.0554 48.9195 15.1259 47.9169 15.8712C46.9143 16.6166 45.6839 16.9904 44.4361 16.9289C39.7775 16.9289 38.6305 13.1837 38.6305 10.7257C38.6305 8.26763 39.0668 4.06623 44.2542 3.91714C45.5196 3.81892 46.7784 4.17698 47.8026 4.92649C48.8269 5.676 49.549 6.76742 49.8382 8.00323H46.5582C46.4025 7.54351 46.0883 7.15421 45.6718 6.90491C45.2554 6.65562 44.7638 6.56261 44.285 6.64253C42.3299 6.68726 41.82 8.52407 41.82 10.2714C41.82 12.0188 42.2534 14.2055 44.4242 14.2055C46.4876 14.2681 46.6695 13.1509 46.8524 12.8438" fill="#003057"/>
<path d="M53.9164 7.53607H55.8456V4.24315H53.9204V2.12902C53.9336 1.91978 53.903 1.7101 53.8306 1.51335C53.7582 1.31661 53.6455 1.13712 53.4997 0.986412C53.354 0.835704 53.1784 0.717075 52.9842 0.638102C52.79 0.559128 52.5814 0.521555 52.3718 0.527781H50.6821V14.3436C50.6821 15.7848 51.2387 16.6456 52.4474 16.6456H53.9154L53.9164 7.53607Z" fill="#003057"/>
<path d="M59.2817 16.6704V10.2346C59.2497 9.86375 59.2913 9.49019 59.404 9.13541C59.5168 8.78062 59.6985 8.45158 59.9387 8.16722C60.2145 7.92913 60.535 7.74833 60.8814 7.63536C61.2278 7.52239 61.5933 7.47953 61.9564 7.50924H63.0329V4.17358C62.0453 4.15517 61.0597 4.26576 60.1008 4.50257C59.3457 4.71101 58.6373 5.06151 58.0135 5.53527C57.363 6.06816 56.8551 6.75433 56.5355 7.53211C56.1479 8.5118 55.9643 9.56025 55.9958 10.6133V16.6764L59.2817 16.6704Z" fill="#003057"/>
<path d="M63.9641 4.19345H67.2491V12.1798C67.2288 12.4686 67.2707 12.7583 67.3719 13.0295C67.4731 13.3007 67.6313 13.5471 67.8358 13.752C68.0403 13.9569 68.2864 14.1155 68.5574 14.2172C68.8285 14.3189 69.1181 14.3614 69.407 14.3416C69.6903 14.3624 69.9749 14.3241 70.2427 14.2293C70.5106 14.1344 70.7558 13.985 70.9629 13.7905C71.17 13.596 71.3345 13.3606 71.446 13.0993C71.5575 12.838 71.6135 12.5563 71.6105 12.2722V5.744C71.6105 5.744 71.7218 4.19445 73.1452 4.19445H74.8488C74.8488 4.19445 74.8488 11.5417 74.8488 11.6122C74.8259 12.0168 75.2792 16.9288 69.407 16.909C63.5884 16.909 64.0009 11.9392 63.9641 11.641V4.19345Z" fill="#003057"/>
<path d="M86.7096 16.7102H83.4564V8.68311C83.4861 8.38657 83.4488 8.08711 83.3472 7.80694C83.2456 7.52678 83.0823 7.27305 82.8694 7.06452C82.6565 6.85599 82.3994 6.698 82.1172 6.60225C81.8349 6.50649 81.5348 6.47543 81.2389 6.51134C80.9489 6.4921 80.6582 6.53511 80.3862 6.6375C80.1142 6.73989 79.8672 6.89929 79.6619 7.10498C79.4566 7.31068 79.2976 7.55793 79.1957 7.83012C79.0938 8.10231 79.0514 8.39314 79.0711 8.68311V16.7102H75.7693V9.34406C75.693 8.54677 75.8047 7.7427 76.0956 6.99645C76.3865 6.2502 76.8483 5.58258 77.4441 5.04724C78.5183 4.26482 79.8166 3.85064 81.1455 3.86645C81.8595 3.86566 82.5713 3.94502 83.2676 4.10301C83.9634 4.26254 84.6109 4.58629 85.156 5.04724C85.6399 4.63201 86.2125 4.33314 86.8299 4.17357C87.4822 3.98569 88.156 3.88248 88.8346 3.86645C92.8611 3.84558 94.4763 5.69134 94.6105 6.28373V16.7092H92.7468C92.5353 16.7123 92.3253 16.6729 92.1293 16.5932C91.9333 16.5136 91.7553 16.3954 91.6059 16.2457C91.4565 16.096 91.3386 15.9178 91.2594 15.7217C91.1801 15.5255 91.1411 15.3155 91.1446 15.104V8.68311C91.1809 8.38519 91.148 8.0829 91.0487 7.7997C90.9494 7.51649 90.7862 7.25996 90.5718 7.04996C90.3574 6.83997 90.0975 6.68216 89.8123 6.58875C89.5271 6.49535 89.2242 6.46886 88.9271 6.51134C88.633 6.48364 88.3364 6.52043 88.058 6.61914C87.7796 6.71786 87.5261 6.87613 87.3152 7.0829C87.1042 7.28968 86.9409 7.53997 86.8367 7.81635C86.7324 8.09272 86.6897 8.38853 86.7116 8.68311L86.7096 16.7102Z" fill="#003057"/>
<path d="M95.5228 6.27873V16.6953L102.381 11.488L95.5228 6.27873Z" fill="#0D6EFD"/>
</g>
<path d="M59.8889 23.8901H58.5712L58.3237 24.6254H57.5423L58.8187 21.0486H59.6632L60.9299 24.6254H60.1194L59.8889 23.8901ZM59.6802 23.2738L59.2337 21.8663L58.7726 23.2738H59.6802ZM63.5021 23.2471V21.0486H64.2616V23.2471C64.2616 23.6273 64.2026 23.9233 64.0845 24.1352C63.8645 24.5235 63.4447 24.7176 62.8251 24.7176C62.2055 24.7176 61.7849 24.5235 61.5632 24.1352C61.4451 23.9233 61.3861 23.6273 61.3861 23.2471V21.0486H62.1456V23.2471C62.1456 23.493 62.1747 23.6726 62.233 23.7858C62.3236 23.9864 62.5209 24.0867 62.8251 24.0867C63.1276 24.0867 63.3241 23.9864 63.4147 23.7858C63.473 23.6726 63.5021 23.493 63.5021 23.2471ZM67.5764 21.0486V21.6819H66.5063V24.6254H65.754V21.6819H64.679V21.0486H67.5764ZM70.1486 24.6254V23.0287H68.7509V24.6254H68.0108V21.0486H68.7509V22.4123H70.1486V21.0486H70.8912V24.6254H70.1486ZM73.1892 24.7249C72.678 24.7249 72.2873 24.5858 72.0171 24.3075C71.6547 23.9662 71.4735 23.4744 71.4735 22.8321C71.4735 22.1769 71.6547 21.6852 72.0171 21.3568C72.2873 21.0785 72.678 20.9394 73.1892 20.9394C73.7004 20.9394 74.0911 21.0785 74.3612 21.3568C74.722 21.6852 74.9024 22.1769 74.9024 22.8321C74.9024 23.4744 74.722 23.9662 74.3612 24.3075C74.0911 24.5858 73.7004 24.7249 73.1892 24.7249ZM73.8953 23.764C74.0684 23.5456 74.155 23.235 74.155 22.8321C74.155 22.4309 74.0676 22.1211 73.8929 21.9027C73.7198 21.6827 73.4852 21.5727 73.1892 21.5727C72.8931 21.5727 72.6569 21.6819 72.4806 21.9003C72.3043 22.1187 72.2161 22.4293 72.2161 22.8321C72.2161 23.235 72.3043 23.5456 72.4806 23.764C72.6569 23.9824 72.8931 24.0916 73.1892 24.0916C73.4852 24.0916 73.7206 23.9824 73.8953 23.764ZM76.9941 23.2228H76.2224V24.6254H75.492V21.0486H77.2465C77.4972 21.0534 77.6897 21.0842 77.824 21.1408C77.9599 21.1974 78.0748 21.2807 78.1686 21.3907C78.2462 21.4813 78.3077 21.5816 78.353 21.6916C78.3983 21.8016 78.421 21.927 78.421 22.0678C78.421 22.2376 78.3781 22.4051 78.2923 22.5701C78.2066 22.7335 78.065 22.8491 77.8677 22.9171C78.0327 22.9834 78.1492 23.078 78.2171 23.201C78.2867 23.3223 78.3215 23.5084 78.3215 23.7591V23.9993C78.3215 24.1627 78.3279 24.2735 78.3409 24.3318C78.3603 24.424 78.4056 24.4919 78.4768 24.5356V24.6254H77.6541C77.6315 24.5461 77.6153 24.4822 77.6056 24.4337C77.5862 24.3334 77.5757 24.2307 77.5741 24.1255L77.5692 23.7931C77.566 23.565 77.5239 23.4129 77.443 23.3369C77.3638 23.2608 77.2141 23.2228 76.9941 23.2228ZM77.4479 22.5725C77.5967 22.5045 77.6711 22.3703 77.6711 22.1697C77.6711 21.9529 77.5991 21.8073 77.4552 21.7329C77.3743 21.6908 77.2529 21.6698 77.0912 21.6698H76.2224V22.6307H77.0693C77.2376 22.6307 77.3638 22.6113 77.4479 22.5725ZM79.0082 21.0486H79.7507V24.6254H79.0082V21.0486ZM82.9806 24.6254H80.1972V23.9945L82.0439 21.6819H80.2433V21.0486H82.9757V21.6479L81.1048 23.9945H82.9806V24.6254ZM85.9774 23.0627H84.24V23.9824H86.2201V24.6254H83.5096V21.0486H86.1327V21.6819H84.24V22.4415H85.9774V23.0627ZM88.3434 24.6254H86.8025V21.0486H88.3434C88.565 21.0518 88.7495 21.0777 88.8967 21.1262C89.1474 21.2087 89.3504 21.36 89.5057 21.58C89.6303 21.758 89.7152 21.9505 89.7605 22.1575C89.8058 22.3646 89.8285 22.562 89.8285 22.7496C89.8285 23.2252 89.733 23.6281 89.5421 23.9581C89.2833 24.403 88.8837 24.6254 88.3434 24.6254ZM88.8991 21.961C88.7842 21.7669 88.5569 21.6698 88.2172 21.6698H87.5281V24.0042H88.2172C88.5699 24.0042 88.8158 23.8303 88.9549 23.4825C89.0309 23.2916 89.069 23.0643 89.069 22.8006C89.069 22.4366 89.0123 22.1567 88.8991 21.961Z" fill="#003057"/>
<path d="M67.142 29.6328H66.3703V31.0353H65.6399V27.4585H67.3944C67.6451 27.4634 67.8376 27.4941 67.9719 27.5507C68.1078 27.6073 68.2227 27.6907 68.3165 27.8007C68.3941 27.8913 68.4556 27.9916 68.5009 28.1016C68.5462 28.2116 68.5689 28.3369 68.5689 28.4777C68.5689 28.6476 68.526 28.815 68.4402 28.98C68.3545 29.1434 68.2129 29.2591 68.0156 29.327C68.1806 29.3933 68.2971 29.488 68.365 29.6109C68.4346 29.7323 68.4694 29.9183 68.4694 30.169V30.4093C68.4694 30.5727 68.4758 30.6835 68.4888 30.7417C68.5082 30.8339 68.5535 30.9019 68.6247 30.9456V31.0353H67.802C67.7794 30.9561 67.7632 30.8922 67.7535 30.8436C67.7341 30.7433 67.7236 30.6406 67.722 30.5355L67.7171 30.203C67.7139 29.9749 67.6718 29.8228 67.5909 29.7468C67.5117 29.6708 67.362 29.6328 67.142 29.6328ZM67.5958 28.9824C67.7446 28.9145 67.819 28.7802 67.819 28.5796C67.819 28.3628 67.747 28.2172 67.6031 28.1428C67.5222 28.1008 67.4008 28.0797 67.2391 28.0797H66.3703V29.0407H67.2172C67.3855 29.0407 67.5117 29.0213 67.5958 28.9824ZM71.704 29.4726H69.9666V30.3923H71.9467V31.0353H69.2362V27.4585H71.8593V28.0919H69.9666V28.8514H71.704V29.4726ZM73.8273 30.5185C74.0037 30.5185 74.1468 30.4991 74.2568 30.4602C74.4655 30.3858 74.5699 30.2475 74.5699 30.0453C74.5699 29.9272 74.5181 29.8358 74.4146 29.7711C74.311 29.708 74.1485 29.6522 73.9268 29.6036L73.5483 29.5187C73.1762 29.4346 72.919 29.3432 72.7766 29.2445C72.5356 29.0795 72.415 28.8215 72.415 28.4704C72.415 28.1501 72.5315 27.884 72.7645 27.6721C72.9974 27.4601 73.3396 27.3542 73.7909 27.3542C74.1679 27.3542 74.489 27.4545 74.7543 27.6551C75.0212 27.854 75.1612 28.1436 75.1741 28.5238H74.4558C74.4429 28.3086 74.3491 28.1558 74.1743 28.0652C74.0579 28.0053 73.9131 27.9754 73.74 27.9754C73.5475 27.9754 73.3938 28.0142 73.2789 28.0919C73.1641 28.1695 73.1066 28.2779 73.1066 28.417C73.1066 28.5448 73.1633 28.6403 73.2765 28.7034C73.3493 28.7454 73.5046 28.7948 73.7424 28.8514L74.3588 28.9994C74.6289 29.0641 74.8328 29.1507 74.9703 29.2591C75.1838 29.4273 75.2906 29.6708 75.2906 29.9895C75.2906 30.3163 75.1652 30.588 74.9145 30.8048C74.6653 31.02 74.3127 31.1276 73.8565 31.1276C73.3905 31.1276 73.0241 31.0216 72.7572 30.8097C72.4903 30.5961 72.3568 30.3033 72.3568 29.9312H73.0702C73.0929 30.0946 73.1374 30.2168 73.2037 30.2977C73.325 30.4449 73.5329 30.5185 73.8273 30.5185ZM78.3336 29.4726H76.5961V30.3923H78.5762V31.0353H75.8657V27.4585H78.4889V28.0919H76.5961V28.8514H78.3336V29.4726ZM79.1586 27.4585H79.906V30.3923H81.6774V31.0353H79.1586V27.4585ZM82.1967 27.4585H82.9441V30.3923H84.7156V31.0353H82.1967V27.4585ZM87.7246 29.4726H85.9871V30.3923H87.9672V31.0353H85.2567V27.4585H87.8799V28.0919H85.9871V28.8514H87.7246V29.4726ZM90.0687 29.6328H89.297V31.0353H88.5666V27.4585H90.3211C90.5718 27.4634 90.7643 27.4941 90.8986 27.5507C91.0345 27.6073 91.1493 27.6907 91.2432 27.8007C91.3208 27.8913 91.3823 27.9916 91.4276 28.1016C91.4729 28.2116 91.4955 28.3369 91.4955 28.4777C91.4955 28.6476 91.4527 28.815 91.3669 28.98C91.2812 29.1434 91.1396 29.2591 90.9423 29.327C91.1073 29.3933 91.2238 29.488 91.2917 29.6109C91.3613 29.7323 91.3961 29.9183 91.3961 30.169V30.4093C91.3961 30.5727 91.4025 30.6835 91.4155 30.7417C91.4349 30.8339 91.4802 30.9019 91.5514 30.9456V31.0353H90.7287C90.7061 30.9561 90.6899 30.8922 90.6802 30.8436C90.6608 30.7433 90.6503 30.6406 90.6487 30.5355L90.6438 30.203C90.6406 29.9749 90.5985 29.8228 90.5176 29.7468C90.4384 29.6708 90.2887 29.6328 90.0687 29.6328ZM90.5225 28.9824C90.6713 28.9145 90.7457 28.7802 90.7457 28.5796C90.7457 28.3628 90.6737 28.2172 90.5298 28.1428C90.4489 28.1008 90.3275 28.0797 90.1658 28.0797H89.297V29.0407H90.1439C90.3122 29.0407 90.4384 29.0213 90.5225 28.9824Z" fill="#003057"/>
</g>
<defs>
<clipPath id="clip0_6295_5682">
<rect width="102.376" height="32" fill="white"/>
</clipPath>
</defs>
</svg>
