<svg width="45" height="29" viewBox="0 0 45 29" fill="none" xmlns="http://www.w3.org/2000/svg">
<rect x="0.0390625" y="0.0566406" width="44" height="28" rx="14" fill="#A1C2C9"/>
<mask id="mask0_470_21017" style="mask-type:alpha" maskUnits="userSpaceOnUse" x="12" y="4" width="21" height="21">
<rect x="12.0391" y="4.05664" width="20" height="20" fill="#D9D9D9"/>
</mask>
<g mask="url(#mask0_470_21017)">
<path d="M29.5397 19.1816L27.873 17.5149V8.22323H26.2064V10.7232H21.0814L16.9147 6.55656H19.6855C19.8383 6.07045 20.1369 5.67114 20.5814 5.35864C21.0258 5.04614 21.5119 4.88989 22.0397 4.88989C22.5953 4.88989 23.0918 5.04614 23.5293 5.35864C23.9668 5.67114 24.2619 6.07045 24.4147 6.55656H27.873C28.3314 6.55656 28.7237 6.71975 29.0501 7.04614C29.3765 7.37253 29.5397 7.76489 29.5397 8.22323V19.1816ZM22.0397 8.22323C22.2758 8.22323 22.4737 8.14337 22.6335 7.98364C22.7932 7.82392 22.873 7.626 22.873 7.38989C22.873 7.15378 22.7932 6.95586 22.6335 6.79614C22.4737 6.63642 22.2758 6.55656 22.0397 6.55656C21.8036 6.55656 21.6057 6.63642 21.446 6.79614C21.2862 6.95586 21.2064 7.15378 21.2064 7.38989C21.2064 7.626 21.2862 7.82392 21.446 7.98364C21.6057 8.14337 21.8036 8.22323 22.0397 8.22323ZM25.498 19.8899L16.2064 10.5982V19.8899H25.498ZM16.2064 21.5566C15.748 21.5566 15.3557 21.3934 15.0293 21.067C14.7029 20.7406 14.5397 20.3482 14.5397 19.8899V8.93156L13.1855 7.57739L14.373 6.38989L29.7064 21.7232L28.5189 22.9107L27.1647 21.5566H16.2064Z" fill="white"/>
</g>
</svg>
