<svg width="45" height="29" viewBox="0 0 45 29" fill="none" xmlns="http://www.w3.org/2000/svg">
<rect x="0.0390625" y="0.0566406" width="44" height="28" rx="14" fill="#A1C2C9"/>
<mask id="mask0_470_21009" style="mask-type:alpha" maskUnits="userSpaceOnUse" x="12" y="4" width="21" height="21">
<rect x="12.0391" y="4.05664" width="20" height="20" fill="#D9D9D9"/>
</mask>
<g mask="url(#mask0_470_21009)">
<path d="M16.6224 18.6401C15.3446 18.6401 14.2613 18.1956 13.3724 17.3067C12.4835 16.4178 12.0391 15.3345 12.0391 14.0567C12.0391 12.7789 12.4835 11.6956 13.3724 10.8067C14.2613 9.91783 15.3446 9.47339 16.6224 9.47339C17.1363 9.47339 17.6293 9.56367 18.1016 9.74422C18.5738 9.92478 18.9974 10.1817 19.3724 10.5151L20.7891 11.8067L19.5391 12.9317L18.2474 11.7651C18.0252 11.5706 17.7752 11.4178 17.4974 11.3067C17.2196 11.1956 16.928 11.1401 16.6224 11.1401C15.8168 11.1401 15.1293 11.4248 14.5599 11.9942C13.9905 12.5637 13.7057 13.2512 13.7057 14.0567C13.7057 14.8623 13.9905 15.5498 14.5599 16.1192C15.1293 16.6887 15.8168 16.9734 16.6224 16.9734C16.928 16.9734 17.2196 16.9178 17.4974 16.8067C17.7752 16.6956 18.0252 16.5428 18.2474 16.3484L24.7057 10.5151C25.0807 10.1817 25.5043 9.92478 25.9766 9.74422C26.4488 9.56367 26.9418 9.47339 27.4557 9.47339C28.7335 9.47339 29.8168 9.91783 30.7057 10.8067C31.5946 11.6956 32.0391 12.7789 32.0391 14.0567C32.0391 15.3345 31.5946 16.4178 30.7057 17.3067C29.8168 18.1956 28.7335 18.6401 27.4557 18.6401C26.9418 18.6401 26.4488 18.5498 25.9766 18.3692C25.5043 18.1887 25.0807 17.9317 24.7057 17.5984L23.2891 16.3067L24.5391 15.1817L25.8307 16.3484C26.053 16.5428 26.303 16.6956 26.5807 16.8067C26.8585 16.9178 27.1502 16.9734 27.4557 16.9734C28.2613 16.9734 28.9488 16.6887 29.5182 16.1192C30.0877 15.5498 30.3724 14.8623 30.3724 14.0567C30.3724 13.2512 30.0877 12.5637 29.5182 11.9942C28.9488 11.4248 28.2613 11.1401 27.4557 11.1401C27.1502 11.1401 26.8585 11.1956 26.5807 11.3067C26.303 11.4178 26.053 11.5706 25.8307 11.7651L19.3724 17.5984C18.9974 17.9317 18.5738 18.1887 18.1016 18.3692C17.6293 18.5498 17.1363 18.6401 16.6224 18.6401Z" fill="white"/>
</g>
</svg>
