<svg xmlns="http://www.w3.org/2000/svg" width="189" height="190" viewBox="0 0 189 190" fill="none">
<path d="M94.6502 179.741C141.135 179.741 178.818 141.884 178.818 95.185C178.818 48.4862 141.135 10.6294 94.6502 10.6294C48.1656 10.6294 10.4824 48.4862 10.4824 95.185C10.4824 141.884 48.1656 179.741 94.6502 179.741Z" stroke="#EDEDEC" stroke-width="10" stroke-miterlimit="10"/>
<path d="M94.6502 10.6294C111.297 10.6294 127.57 15.5886 141.411 24.8797C155.253 34.1708 166.041 47.3765 172.411 62.827C178.782 78.2775 180.448 95.2788 177.201 111.681C173.953 128.083 165.937 143.15 154.166 154.975C142.395 166.8 127.397 174.853 111.071 178.116C94.7436 181.379 77.8202 179.704 62.4406 173.304C47.0609 166.904 33.9156 156.067 24.6672 142.162C15.4187 128.256 10.4824 111.909 10.4824 95.1851" stroke="url(#paint0_linear_470_21800)" stroke-width="10" stroke-miterlimit="10" stroke-linecap="round"/>
<defs>
<linearGradient id="paint0_linear_470_21800" x1="94.6502" y1="10.6294" x2="94.6502" y2="179.741" gradientUnits="userSpaceOnUse">
<stop stop-color="#66CBF9"/>
<stop offset="1" stop-color="#2358B3"/>
</linearGradient>
</defs>
</svg>