<svg width="201" height="26" viewBox="0 0 201 26" fill="none" xmlns="http://www.w3.org/2000/svg">
<path d="M2.27178 18.5232C3.47197 19.5472 5.31166 20.0668 7.75225 20.0668C9.69363 20.1818 11.6191 19.6562 13.2327 18.5706C13.8822 18.0144 14.3944 17.3155 14.7292 16.5287C15.0641 15.7418 15.2127 14.8883 15.1633 14.0345C15.1855 13.1694 14.9784 12.3138 14.5632 11.5545C14.1437 10.8182 13.5153 10.2227 12.7573 9.84356C12.2988 9.62369 11.8258 9.43555 11.3415 9.28047C10.698 9.06408 7.39991 8.16877 7.06126 8.08029C5.22398 7.65153 4.06401 7.01444 4.06401 5.93894C4.15009 3.84344 6.12009 3.66728 7.19237 3.66728C8.12767 3.61028 9.05699 3.85105 9.84694 4.35505C10.1753 4.58551 10.4411 4.8942 10.6202 5.25319C10.7992 5.61219 10.886 6.01017 10.8726 6.41113H14.5125C14.5008 5.59069 14.3237 4.78105 13.992 4.03056C13.6603 3.28008 13.1807 2.60415 12.5819 2.04317C11.1168 0.99249 9.33581 0.475763 7.53586 0.579137C5.22398 0.579137 3.42611 1.05133 2.22432 2.03512C1.61302 2.53411 1.12784 3.17006 0.808079 3.89147C0.488322 4.61288 0.34298 5.39946 0.383825 6.1875C0.329247 7.00623 0.490398 7.82494 0.851187 8.56191C1.21198 9.29887 1.75978 9.9283 2.4399 10.3873C3.58669 10.9755 4.81322 11.3932 6.08068 11.6269L7.53666 11.923C10.0649 12.5231 11.5209 13.3387 11.4783 14.5775C11.4871 14.9112 11.4136 15.2419 11.2643 15.5404C11.115 15.8389 10.8946 16.0961 10.6224 16.2893C9.85187 16.7207 8.97629 16.9285 8.09412 16.8894C7.05436 16.9441 6.02315 16.6758 5.14193 16.1212C4.77576 15.8628 4.47374 15.5239 4.25912 15.1305C4.04449 14.7371 3.92298 14.2997 3.90394 13.8519H0.128022C0.117036 14.7409 0.303657 15.6211 0.674399 16.4291C1.04514 17.2371 1.59074 17.9526 2.27178 18.524M25.784 12.7C25.784 11.2843 25.5282 8.33207 22.6556 8.33207C19.9118 8.33207 19.6157 11.244 19.6157 12.7C19.6157 16.4285 21.7595 16.9401 22.7441 16.9401C25.3922 16.8999 25.784 14.1158 25.784 12.7ZM19.6165 23.2756C19.6217 23.5186 19.5776 23.7602 19.4869 23.9857C19.3962 24.2112 19.2608 24.416 19.0888 24.5877C18.9168 24.7595 18.7119 24.8946 18.4862 24.985C18.2606 25.0754 18.019 25.1192 17.776 25.1137H15.9363V11.6752C16.1527 8.07546 17.4326 5.25117 22.9203 5.03478C23.867 5.01051 24.8079 5.18896 25.68 5.55814C26.5522 5.92732 27.3352 6.47871 27.9768 7.17532C29.0759 8.73614 29.6195 10.6207 29.5205 12.5271C29.6029 14.4996 29.032 16.4441 27.8964 18.059C27.4172 18.7068 26.7906 19.2312 26.0686 19.5887C25.3465 19.9462 24.5496 20.1267 23.744 20.1151C22.2769 20.1447 20.8378 19.7106 19.6318 18.8747L19.6165 23.2756ZM37.131 16.8516C36.1866 16.8114 34.4346 16.6352 34.2593 13.5077H43.5929V12.3952C43.6361 10.4546 43.0325 8.5548 41.877 6.99513C41.2275 6.33581 40.4448 5.82257 39.5811 5.48966C38.7175 5.15676 37.7928 5.01183 36.8688 5.06454C35.969 5.02087 35.0708 5.17926 34.2402 5.52809C33.4096 5.87692 32.6676 6.40734 32.0688 7.0804C30.8725 8.61811 30.2792 10.5399 30.4005 12.4844C30.4005 14.8848 30.9636 16.7245 32.1123 18.0124C32.7111 18.6854 33.453 19.2158 34.2836 19.5647C35.1142 19.9135 36.0124 20.0719 36.9122 20.0282C38.4086 20.073 39.8801 19.6384 41.1121 18.7878C42.2762 17.9547 43.0865 16.7163 43.3837 15.316H40.1283C39.6569 16.6352 38.4181 16.9393 37.131 16.8516ZM36.9605 8.20336C39.2724 8.16314 39.615 10.134 39.7043 11.1153H34.2247C34.2166 11.1153 34.1772 8.24358 36.9605 8.20336ZM53.8716 15.3152H57.4239C57.0818 16.7047 56.2658 17.9315 55.1166 18.7842C53.9674 19.637 52.5569 20.0624 51.1278 19.9872C45.776 19.9872 44.4512 15.7069 44.4512 12.8754C44.4512 10.0439 44.9636 5.25117 50.9154 5.08304C52.3664 4.97325 53.8091 5.38286 54.9859 6.2387C56.1627 7.09455 56.9969 8.34088 57.3395 9.75507H53.5692C53.5692 9.75507 53.1855 8.13096 50.9532 8.2114C48.729 8.25163 48.1289 10.3552 48.1289 12.3638C48.1289 14.3724 48.6406 16.8596 51.1286 16.8596C53.4485 16.9401 53.6649 15.653 53.8725 15.316M61.9689 9.22818H64.1931V5.45951H61.9689V3.01892C61.9846 2.78075 61.9507 2.54191 61.8695 2.31749C61.7882 2.09306 61.6613 1.88793 61.4967 1.71504C61.3321 1.54216 61.1335 1.40528 60.9134 1.31306C60.6932 1.22083 60.4563 1.17526 60.2177 1.17923H58.2871V17.0262C58.2871 18.6985 58.9306 19.6807 60.3029 19.6807H61.9673L61.9689 9.22818ZM68.1371 19.6855V12.3155C68.097 11.8917 68.1445 11.4642 68.2767 11.0596C68.4088 10.655 68.6228 10.2818 68.9053 9.96342C69.2203 9.68825 69.587 9.47861 69.984 9.34671C70.3809 9.21481 70.8001 9.16331 71.2172 9.1952H72.4576V5.37907C71.3178 5.36164 70.1804 5.4906 69.0734 5.76277C68.2 5.99538 67.3832 6.40377 66.6731 6.96296C65.9228 7.56615 65.3352 8.34731 64.9637 9.23542C64.5263 10.3499 64.3247 11.5431 64.3716 12.7394V19.6759H68.1395L68.1371 19.6855ZM73.4905 5.37907H77.2583V14.5494C77.2649 15.1986 77.5232 15.82 77.9788 16.2826C78.4344 16.7453 79.0517 17.0131 79.7008 17.0296C80.3499 17.0462 80.98 16.8103 81.4586 16.3715C81.9372 15.9327 82.2269 15.3253 82.2666 14.6773V7.1713C82.2666 7.1713 82.3945 5.41929 84.0186 5.41929H85.987V13.8994C85.9468 14.3716 86.4986 19.9792 79.7311 19.9792C73.0545 19.9792 73.5227 14.2831 73.4752 13.9388V5.37907H73.4905ZM99.5695 19.7242H95.8419V10.5152C95.8774 10.1766 95.8361 9.83434 95.7209 9.51394C95.6056 9.19354 95.4195 8.90329 95.1765 8.66486C94.9334 8.42644 94.6396 8.24598 94.3171 8.13696C93.9945 8.02793 93.6515 7.99316 93.3136 8.03524C92.9823 8.01358 92.6502 8.06289 92.3395 8.17986C92.0288 8.29683 91.7467 8.47877 91.5119 8.71353C91.2771 8.94829 91.0952 9.23045 90.9782 9.54115C90.8613 9.85186 90.812 10.184 90.8336 10.5152V19.7242H87.0657V11.2835C87.0657 8.84367 87.7937 7.34184 88.9963 6.35563C90.2328 5.46936 91.7151 4.99128 93.2364 4.98812C94.0562 4.9901 94.8737 5.07581 95.6762 5.24393C96.4754 5.43287 97.2219 5.79936 97.8602 6.31621C98.4154 5.83806 99.0776 5.50062 99.7908 5.33241C100.541 5.10616 101.319 4.99019 102.103 4.98812C106.726 4.9479 108.567 7.08442 108.743 7.7722V19.7242H106.599C106.357 19.7277 106.116 19.6826 105.891 19.5914C105.666 19.5002 105.462 19.3648 105.29 19.1933C105.119 19.0218 104.984 18.8175 104.892 18.5927C104.801 18.3679 104.756 18.127 104.76 17.8845V10.516C104.76 9.49203 104.415 8.03604 102.231 8.03604C101.895 8.0017 101.555 8.04185 101.236 8.15363C100.917 8.26542 100.627 8.44609 100.385 8.68283C100.144 8.91956 99.9577 9.20654 99.8398 9.52338C99.7219 9.84021 99.6752 10.1791 99.7031 10.516V19.7242H99.5695Z" fill="#003057"/>
<path d="M109.723 7.77148V19.7235L117.562 13.7708L109.723 7.77148Z" fill="#0D6EFD"/>
<path d="M141.026 19.7244C140.776 19.7212 140.538 19.6207 140.362 19.4443C140.185 19.2679 140.085 19.0295 140.082 18.78V10.2999C140.114 9.28815 139.778 8.29899 139.137 7.5158C138.773 7.11182 138.322 6.79705 137.817 6.59589C137.312 6.39473 136.767 6.31259 136.225 6.35583C135.687 6.31043 135.146 6.38679 134.642 6.57926C134.138 6.77172 133.684 7.07534 133.313 7.46753C132.687 8.24333 132.353 9.21446 132.37 10.2114V19.7155H130.654V10.2999C130.668 9.28419 130.32 8.29672 129.67 7.5158C128.874 6.77829 127.832 6.36452 126.747 6.35559C125.662 6.34666 124.613 6.74322 123.806 7.46753C123.194 8.24855 122.877 9.21992 122.91 10.2114V19.7155H121.162V10.5959C121.101 9.82997 121.203 9.05995 121.461 8.33621C121.719 7.61247 122.127 6.95133 122.658 6.39605C123.81 5.41482 125.301 4.92392 126.81 5.02855C129.034 5.02855 130.618 5.75655 131.562 7.21253C132.418 5.75655 133.962 5.02855 136.274 5.02855C137.769 4.94646 139.239 5.43527 140.386 6.39605C141.41 7.34044 141.883 8.70794 141.883 10.5959V19.7155H141.027L141.026 19.7244ZM150.106 20.1483C149.208 20.1573 148.318 19.9832 147.49 19.6367C146.687 19.3427 145.967 18.8567 145.395 18.2209C144.768 17.5411 144.286 16.7408 143.979 15.8688C143.618 14.8075 143.445 13.6915 143.467 12.5707C143.448 11.5696 143.594 10.5723 143.898 9.61853C144.148 8.74405 144.57 7.92806 145.138 7.21816C145.696 6.51617 146.415 5.95906 147.234 5.59406C148.149 5.18243 149.143 4.97753 150.146 4.99396C151.162 4.98196 152.168 5.18654 153.098 5.59406C153.909 5.97221 154.625 6.52714 155.194 7.21816C155.773 7.92097 156.196 8.73932 156.434 9.61853C156.692 10.5811 156.822 11.5739 156.818 12.5707C156.827 13.6319 156.667 14.6877 156.346 15.6991C156.063 16.5777 155.612 17.393 155.018 18.0995C154.447 18.7683 153.73 19.2965 152.922 19.6431C152.021 19.9775 151.068 20.1483 150.107 20.1475L150.106 20.1483ZM154.994 12.6126C154.996 11.8055 154.91 11.0006 154.738 10.2122C154.577 9.52044 154.287 8.86539 153.882 8.2816C153.501 7.73264 152.986 7.28973 152.386 6.99454C151.691 6.66717 150.93 6.50554 150.162 6.52235C149.389 6.49807 148.622 6.67432 147.937 7.03395C147.344 7.37382 146.833 7.84082 146.441 8.40146C146.036 8.98457 145.745 9.63986 145.585 10.332C145.415 11.0772 145.329 11.8393 145.329 12.6037C145.315 13.4267 145.415 14.2478 145.626 15.0435C145.814 15.7416 146.134 16.3971 146.57 16.9741C146.958 17.5242 147.493 17.954 148.114 18.2145C148.77 18.5154 149.487 18.6631 150.209 18.6465C150.982 18.6707 151.748 18.4944 152.433 18.1348C153.027 17.795 153.538 17.328 153.929 16.7673C154.334 16.1835 154.624 15.5284 154.785 14.8368C154.917 14.1025 154.987 13.3585 154.994 12.6126ZM171.09 9.62014C170.851 8.74161 170.428 7.92361 169.85 7.21977C169.28 6.53077 168.564 5.97621 167.754 5.59566C166.827 5.19971 165.83 4.99558 164.822 4.99558C163.814 4.99558 162.817 5.19971 161.89 5.59566C161.079 5.97377 160.362 6.52871 159.794 7.21977V1.52373C159.791 1.27437 159.69 1.0361 159.514 0.859685C159.338 0.683275 159.099 0.582682 158.85 0.579346L158.162 0.579346V12.8676C158.162 13.9024 158.335 14.93 158.675 15.9074C158.98 16.7803 159.462 17.5809 160.09 18.2595C160.669 18.8888 161.387 19.3737 162.187 19.6753C163.025 19.9847 163.908 20.1575 164.802 20.1869C165.747 20.2064 166.685 20.014 167.547 19.6238C168.363 19.2918 169.083 18.7612 169.643 18.0802C170.248 17.3816 170.701 16.5639 170.971 15.6798C171.288 14.6675 171.448 13.6123 171.443 12.5514C171.481 11.5603 171.362 10.5693 171.091 9.61531L171.09 9.62014ZM169.426 14.844C169.265 15.5357 168.974 16.1908 168.57 16.7746C168.181 17.3372 167.669 17.8047 167.074 18.1421C166.402 18.4651 165.669 18.6395 164.923 18.6534C164.178 18.6673 163.438 18.5203 162.755 18.2225C162.16 17.9203 161.634 17.4979 161.21 16.9821C160.778 16.4031 160.458 15.7483 160.267 15.0515C160.054 14.2561 159.955 13.4349 159.971 12.6118C159.971 11.8474 160.057 11.0854 160.226 10.3401C160.388 9.64843 160.678 8.99344 161.082 8.4095C161.472 7.84692 161.983 7.37948 162.578 7.042C163.263 6.68243 164.029 6.50618 164.802 6.53039C165.57 6.50903 166.333 6.67089 167.026 7.00258C167.626 7.29771 168.14 7.74064 168.522 8.28964C168.926 8.87335 169.217 9.52843 169.377 10.2202C169.552 11.0082 169.638 11.8134 169.633 12.6206C169.713 13.3685 169.642 14.1248 169.425 14.8448L169.426 14.844ZM173.194 2.76413V0.619566H175.034V2.80355H173.194V2.76413ZM173.275 19.7646V5.45972H174.947V19.7638L173.275 19.7646ZM176.963 0.619566H178.635V19.7646H176.963V0.619566ZM182.059 12.9955C182.05 13.7341 182.149 14.47 182.355 15.1794C182.546 15.8275 182.849 16.4369 183.251 16.9797C183.65 17.4903 184.162 17.9011 184.747 18.1799C185.524 18.5467 186.383 18.7042 187.239 18.6369C188.095 18.5696 188.918 18.2798 189.628 17.7962C190.424 17.1994 190.973 16.3313 191.171 15.3564H193.011C192.817 16.0168 192.543 16.6509 192.195 17.2444C191.866 17.8219 191.447 18.3431 190.954 18.788C190.435 19.229 189.842 19.5755 189.203 19.8121C188.429 20.0669 187.617 20.1835 186.803 20.1563C185.786 20.1784 184.778 19.9734 183.85 19.5562C183.053 19.1924 182.35 18.6505 181.795 17.9724C181.227 17.2681 180.817 16.4492 180.595 15.572C180.331 14.6105 180.202 13.6169 180.211 12.6198C180.206 11.6166 180.365 10.6193 180.683 9.6676C180.96 8.78312 181.397 7.95644 181.97 7.22782C182.523 6.53761 183.226 5.98224 184.026 5.60371C184.898 5.20016 185.849 4.99521 186.81 5.00362C187.694 4.96698 188.575 5.13323 189.384 5.48962C190.194 5.84602 190.912 6.3831 191.482 7.05969C192.594 8.4272 193.154 10.4036 193.154 12.9721H182.056L182.059 12.9955ZM191.435 11.5877C191.445 10.9198 191.345 10.2548 191.139 9.61934C190.95 9.03267 190.66 8.4832 190.283 7.99523C189.902 7.53174 189.417 7.16442 188.868 6.92295C188.246 6.65717 187.576 6.52638 186.9 6.53924C186.219 6.52256 185.543 6.67076 184.932 6.97121C184.376 7.23873 183.88 7.61703 183.476 8.08291C183.064 8.56197 182.744 9.11245 182.531 9.70702C182.285 10.3256 182.126 10.9753 182.059 11.6376H191.435V11.5877ZM194.09 6.10727V5.63508H196.53V6.10727H195.586V8.50764H195.023V6.10727H194.09ZM197.858 5.63508L198.586 7.69116L199.31 5.63508H200.127V8.49879H199.614V6.18771L198.799 8.49959H198.327L197.511 6.18771V8.49959H196.999V5.63508H197.858Z" fill="#003057"/>
</svg>
