<svg xmlns="http://www.w3.org/2000/svg" width="34" height="44" viewBox="0 0 34 44" fill="none">
<path d="M15.7019 36.9054H19.0769V34.6554H21.8894C22.3683 34.6554 22.7692 34.4939 23.0923 34.1708C23.4153 33.8477 23.5769 33.4468 23.5769 32.968V26.218C23.5769 25.7391 23.4153 25.3382 23.0923 25.0151C22.7692 24.692 22.3683 24.5305 21.8894 24.5305H14.5769V21.1554H23.5769V17.7805H19.0769V15.5304H15.7019V17.7805H12.8894C12.4106 17.7805 12.0096 17.942 11.6865 18.2651C11.3635 18.5882 11.2019 18.9891 11.2019 19.468V26.218C11.2019 26.6968 11.3635 27.0977 11.6865 27.4208C12.0096 27.7439 12.4106 27.9054 12.8894 27.9054H20.2019V31.2805H11.2019V34.6554H15.7019V36.9054ZM4.19233 43.3741C3.05578 43.3741 2.09375 42.9804 1.30625 42.1929C0.51875 41.4054 0.125 40.4434 0.125 39.3068V4.69158C0.125 3.55503 0.51875 2.593 1.30625 1.8055C2.09375 1.018 3.05578 0.624252 4.19233 0.624252H22.0625L33.8749 12.4366V39.3068C33.8749 40.4434 33.4811 41.4054 32.6936 42.1929C31.9061 42.9804 30.9441 43.3741 29.8076 43.3741H4.19233ZM20.375 12.7395V3.9992H4.19233C4.01923 3.9992 3.86054 4.07131 3.71628 4.21554C3.57206 4.3598 3.49994 4.51848 3.49994 4.69158V39.3068C3.49994 39.4799 3.57206 39.6386 3.71628 39.7829C3.86054 39.9271 4.01923 39.9992 4.19233 39.9992H29.8076C29.9807 39.9992 30.1393 39.9271 30.2836 39.7829C30.4278 39.6386 30.4999 39.4799 30.4999 39.3068V12.7395H20.375Z" fill="white"/>
</svg>