<svg width="34" height="34" viewBox="0 0 34 34" fill="none" xmlns="http://www.w3.org/2000/svg">
<path d="M17.9794 1.17073C17.7787 1.29615 17.6162 1.4743 17.5098 1.68575C17.4034 1.89719 17.3571 2.1338 17.3759 2.36976C17.3948 2.60572 17.4781 2.83197 17.6168 3.02382C17.7554 3.21567 17.9441 3.36576 18.1622 3.4577C21.9116 4.86532 25.0599 7.52445 27.0749 10.9855C29.0898 14.4466 29.8478 18.4974 29.2207 22.4529C29.1677 22.7895 29.2506 23.1334 29.4511 23.409C29.6516 23.6845 29.9534 23.8691 30.29 23.9221C30.6267 23.9752 30.9706 23.8923 31.2461 23.6918C31.5217 23.4913 31.7063 23.1895 31.7593 22.8528C32.4697 18.3189 31.5965 13.6786 29.2867 9.71291C26.9769 5.74726 23.3714 2.69836 19.0772 1.07933C18.8985 1.01427 18.7078 0.988755 18.5183 1.00453C18.3288 1.02031 18.1449 1.07701 17.9794 1.17073ZM17.4182 5.88229C19.3831 6.71224 21.1529 7.94353 22.6142 9.49727C24.0756 11.051 25.1962 12.8929 25.9043 14.9049C26.7157 17.175 26.9669 19.6074 26.6365 21.9954C26.6196 22.1661 26.5685 22.3317 26.4863 22.4823C26.4042 22.633 26.2926 22.7655 26.1582 22.8722C26.0238 22.9789 25.8694 23.0574 25.704 23.1032C25.5387 23.149 25.3658 23.1611 25.1957 23.1388C25.0251 23.119 24.8601 23.0656 24.7102 22.9818C24.5603 22.898 24.4284 22.7854 24.3221 22.6505C24.2159 22.5155 24.1373 22.3609 24.091 22.1956C24.0447 22.0302 24.0315 21.8573 24.0522 21.6868C24.3271 19.7035 24.1192 17.6831 23.4463 15.7973C22.8566 14.1217 21.9232 12.5878 20.7061 11.2939C19.489 10 18.0149 8.97474 16.3784 8.28377C16.1597 8.19037 15.9712 8.03788 15.8343 7.84339C15.6973 7.6489 15.6172 7.42011 15.603 7.18266C15.5887 6.94521 15.6409 6.70848 15.7537 6.49903C15.8664 6.28957 16.0353 6.11566 16.2413 5.99679C16.4131 5.88272 16.6103 5.81262 16.8155 5.79265C17.0207 5.77269 17.2277 5.80347 17.4182 5.88229ZM15.4855 10.7197C16.7713 11.2597 17.9301 12.0627 18.8874 13.0769C19.8446 14.0911 20.5793 15.2943 21.0443 16.6091C21.5659 18.074 21.7345 19.6413 21.5362 21.1836C21.5144 21.351 21.4599 21.5126 21.3757 21.6589C21.2915 21.8053 21.1793 21.9337 21.0454 22.0367C20.9116 22.1397 20.7588 22.2154 20.5958 22.2593C20.4327 22.3033 20.2626 22.3147 20.0952 22.2929C19.9277 22.2711 19.7662 22.2166 19.6198 22.1324C19.4734 22.0482 19.3451 21.936 19.242 21.8021C19.139 21.6683 19.0634 21.5155 19.0194 21.3525C18.9755 21.1894 18.964 21.0193 18.9858 20.8519C19.1876 19.2416 18.8577 17.6096 18.0464 16.2041C17.235 14.7987 15.9867 13.6968 14.4915 13.0662C14.2753 12.9708 14.0895 12.8179 13.9541 12.6243C13.8188 12.4306 13.7391 12.2036 13.7237 11.9678C13.7084 11.7321 13.7579 11.4966 13.867 11.2871C13.9761 11.0775 14.1406 10.9018 14.3426 10.7792C14.5149 10.6794 14.7085 10.622 14.9074 10.6117C15.1063 10.6013 15.3048 10.6383 15.4866 10.7197H15.4855ZM22.8512 33.4426C18.117 35.2151 12.1819 32.6534 9.12831 27.281L4.17644 18.7143C1.12286 13.5797 1.71797 7.4499 5.19413 4.12213L5.69733 3.63023C6.25752 3.25283 6.92092 3.28723 7.17252 3.71033L7.60691 4.48772L10.7863 9.93045L11.2438 10.7422C11.3664 10.9652 11.3954 11.2277 11.3247 11.4721C11.2539 11.7165 11.0891 11.9229 10.8664 12.0459L10.0202 12.5378C9.27196 12.9752 8.72627 13.6898 8.50145 14.5268C8.27663 15.3638 8.3908 16.2557 8.8192 17.0091L12.8679 24.0307C13.3078 24.7855 14.0278 25.3362 14.8715 25.5632C15.7151 25.7902 16.6142 25.6752 17.3735 25.243L18.2197 24.7511C18.4323 24.6187 18.6886 24.5757 18.9328 24.6313C19.177 24.687 19.3893 24.8369 19.5234 25.0484L19.9696 25.8258L23.3426 31.705L23.6969 32.2996C23.7336 32.3942 23.7512 32.4951 23.7486 32.5965C23.746 32.6979 23.7233 32.7978 23.6818 32.8904C23.6403 32.983 23.5808 33.0664 23.5068 33.1358C23.4328 33.2052 23.3457 33.2592 23.2507 33.2947L22.8512 33.4426Z" fill="white"/>
</svg>
