<svg xmlns="http://www.w3.org/2000/svg" width="21" height="22" viewBox="0 0 21 22" fill="none">
            <path d="M11.153 0.113818C11.0191 0.197435 10.9108 0.316203 10.8399 0.457164C10.7689 0.598125 10.738 0.755864 10.7506 0.913171C10.7632 1.07048 10.8187 1.22131 10.9112 1.34921C11.0036 1.47712 11.1294 1.57717 11.2748 1.63847C13.7744 2.57688 15.8733 4.34964 17.2166 6.65703C18.5599 8.96443 19.0652 11.6649 18.6472 14.3019C18.6118 14.5263 18.667 14.7556 18.8007 14.9393C18.9344 15.123 19.1356 15.2461 19.36 15.2814C19.5844 15.3168 19.8137 15.2615 19.9974 15.1279C20.1811 14.9942 20.3042 14.793 20.3395 14.5686C20.8131 11.5459 20.231 8.45238 18.6911 5.80861C17.1512 3.16484 14.7476 1.13224 11.8848 0.0528867C11.7657 0.00951577 11.6385 -0.0074967 11.5122 0.00302265C11.3858 0.013542 11.2633 0.0513428 11.153 0.113818ZM10.7788 3.25486C12.0887 3.80816 13.2686 4.62902 14.2428 5.66484C15.2171 6.70067 15.9641 7.9286 16.4362 9.26994C16.9771 10.7833 17.1446 12.4049 16.9243 13.9969C16.913 14.1107 16.879 14.2211 16.8242 14.3216C16.7695 14.422 16.6951 14.5104 16.6055 14.5815C16.5159 14.6526 16.4129 14.7049 16.3027 14.7355C16.1924 14.766 16.0772 14.7741 15.9638 14.7592C15.8501 14.746 15.7401 14.7104 15.6401 14.6545C15.5402 14.5987 15.4523 14.5236 15.3814 14.4336C15.3106 14.3437 15.2582 14.2406 15.2273 14.1304C15.1965 14.0201 15.1877 13.9048 15.2015 13.7912C15.3847 12.469 15.2461 11.1221 14.7975 9.86488C14.4044 8.74779 13.7821 7.72518 12.9707 6.8626C12.1593 6.00002 11.1766 5.3165 10.0856 4.85585C9.93978 4.79358 9.81416 4.69192 9.72285 4.56226C9.63153 4.4326 9.57814 4.28007 9.56865 4.12177C9.55916 3.96347 9.59395 3.80566 9.66912 3.66602C9.74429 3.52638 9.85687 3.41044 9.99423 3.33119C10.1087 3.25515 10.2402 3.20841 10.377 3.1951C10.5138 3.18179 10.6518 3.20231 10.7788 3.25486ZM9.49035 6.47977C10.3476 6.83983 11.12 7.37511 11.7582 8.05126C12.3964 8.72741 12.8862 9.5295 13.1962 10.4061C13.544 11.3827 13.6563 12.4275 13.5241 13.4557C13.5096 13.5674 13.4733 13.675 13.4171 13.7726C13.361 13.8702 13.2862 13.9558 13.197 14.0245C13.1078 14.0931 13.0059 14.1436 12.8972 14.1729C12.7885 14.2022 12.6751 14.2098 12.5634 14.1953C12.4518 14.1808 12.3441 14.1444 12.2465 14.0883C12.1489 14.0321 12.0634 13.9573 11.9947 13.8681C11.926 13.7789 11.8756 13.677 11.8463 13.5683C11.817 13.4596 11.8094 13.3462 11.8239 13.2346C11.9584 12.1611 11.7384 11.0731 11.1976 10.1361C10.6567 9.19912 9.82449 8.46453 8.82764 8.04413C8.68355 7.98052 8.55964 7.87863 8.46941 7.74953C8.37917 7.62043 8.32605 7.46907 8.31581 7.31189C8.30558 7.15472 8.33863 6.99774 8.41136 6.85804C8.4841 6.71833 8.59374 6.60123 8.72837 6.51947C8.84328 6.45296 8.97233 6.41468 9.10492 6.40777C9.23751 6.40087 9.36984 6.42554 9.49104 6.47977H9.49035ZM14.4008 21.6284C11.2447 22.81 7.28793 21.1022 5.25221 17.5207L1.95096 11.8095C-0.0847588 8.38644 0.311979 4.29993 2.62942 2.08142L2.96489 1.75349C3.33835 1.50189 3.78061 1.52482 3.94834 1.80689L4.23794 2.32514L6.35752 5.95364L6.66252 6.49483C6.74423 6.64348 6.76363 6.81848 6.71646 6.98142C6.66929 7.14436 6.55941 7.28194 6.41093 7.36396L5.8468 7.69189C5.34797 7.98345 4.98418 8.45988 4.8343 9.01788C4.68442 9.57588 4.76053 10.1705 5.04613 10.6727L7.74525 15.3538C8.03855 15.857 8.51855 16.2242 9.08098 16.3755C9.64341 16.5268 10.2428 16.4501 10.749 16.162L11.3132 15.8341C11.4549 15.7458 11.6257 15.7171 11.7885 15.7542C11.9513 15.7913 12.0928 15.8913 12.1823 16.0323L12.4797 16.5505L14.7284 20.47L14.9646 20.8664C14.9891 20.9294 15.0008 20.9967 14.9991 21.0643C14.9973 21.132 14.9822 21.1986 14.9545 21.2603C14.9269 21.322 14.8872 21.3776 14.8379 21.4239C14.7885 21.4701 14.7305 21.5061 14.6671 21.5298L14.4008 21.6284Z" fill="white" />
          </svg>