<svg width="225" height="31" viewBox="0 0 225 31" fill="none" xmlns="http://www.w3.org/2000/svg">
<mask id="mask0_34_6458" style="mask-type:luminance" maskUnits="userSpaceOnUse" x="0" y="0" width="145" height="31">
<path d="M144.565 0H0V30.202H144.565V0Z" fill="white"/>
</mask>
<g mask="url(#mask0_34_6458)">
<path d="M2.65001 22.064C4.15068 23.3454 6.40334 23.9857 9.40801 23.985C11.8045 24.1356 14.1828 23.4832 16.167 22.131C16.9648 21.4484 17.5948 20.5913 18.0082 19.6261C18.4216 18.6609 18.6074 17.6135 18.551 16.565C18.5749 15.5025 18.3238 14.4519 17.822 13.515C17.3044 12.6009 16.5287 11.8596 15.592 11.384C15.0366 11.1054 14.4555 10.881 13.857 10.714C13.044 10.466 9.00301 9.36404 8.59401 9.25404C6.34201 8.70604 4.912 7.95403 4.901 6.62303C5.018 4.04703 7.41901 3.84102 8.74501 3.84102C9.89113 3.77907 11.0275 4.08076 11.992 4.70302C12.3947 4.98617 12.7211 5.36455 12.9422 5.8044C13.1632 6.24425 13.2721 6.73194 13.259 7.22405H17.759C17.7515 6.21317 17.5358 5.21467 17.1255 4.29079C16.7151 3.3669 16.1189 2.5374 15.374 1.85402C13.5858 0.51176 11.3762 -0.146225 9.14501 -0.000960218C6.27301 -0.000960218 4.08667 0.595375 2.586 1.78804C1.84164 2.40595 1.25084 3.18814 0.860065 4.07311C0.46929 4.95807 0.28921 5.92165 0.334003 6.88802C0.273849 7.89329 0.473874 8.8971 0.914767 9.80254C1.35566 10.708 2.02255 11.4845 2.85102 12.057C4.26734 12.7901 5.78659 13.3043 7.35701 13.582L9.14801 13.973C12.255 14.73 14.038 15.69 13.982 17.227C13.9957 17.6407 13.9059 18.0512 13.7208 18.4214C13.5357 18.7916 13.2612 19.1098 12.922 19.347C11.9749 19.8815 10.895 20.1347 9.80901 20.077C8.52751 20.1483 7.25506 19.824 6.164 19.148C5.71615 18.8294 5.34628 18.4135 5.08216 17.9315C4.81804 17.4495 4.66653 16.914 4.63901 16.365H3.03684e-06C-0.00892762 17.4522 0.224248 18.5278 0.682605 19.5137C1.14096 20.4996 1.81302 21.3701 2.65001 22.064Z" fill="white"/>
<path d="M31.616 14.8861C31.616 13.1551 31.299 9.49213 27.755 9.49213C24.39 9.49213 24.026 13.0661 24.026 14.8861C24.026 19.4941 26.645 20.0801 27.888 20.0801C31.106 20.0801 31.616 16.6651 31.616 14.8861ZM24.027 27.9371C24.0293 28.2349 23.9723 28.5302 23.8594 28.8058C23.7464 29.0814 23.5798 29.3318 23.3692 29.5424C23.1586 29.753 22.9083 29.9195 22.6327 30.0325C22.3571 30.1454 22.0618 30.2024 21.764 30.2001H19.5V13.6201C19.762 9.20812 21.367 5.69313 28.067 5.45313C29.2365 5.41922 30.3995 5.63767 31.477 6.09357C32.5544 6.54947 33.521 7.23214 34.311 8.09513C35.6734 10.0127 36.3434 12.3365 36.211 14.6851C36.3235 17.1086 35.6192 19.4996 34.211 21.4751C33.6199 22.2752 32.846 22.9224 31.954 23.3626C31.062 23.8029 30.0776 24.0236 29.083 24.0061C27.2702 24.0664 25.4888 23.5214 24.02 22.4571C24.02 22.6081 24.02 27.9331 24.02 27.9331" fill="white"/>
<path d="M45.549 20.0321C44.402 19.9741 42.216 19.7491 42.015 15.9241H53.496C53.496 15.8071 53.496 14.5481 53.496 14.5461C53.5774 12.1541 52.8283 9.80755 51.376 7.90509C50.5803 7.08835 49.6179 6.45259 48.5544 6.04104C47.491 5.62949 46.3513 5.45183 45.213 5.52011C44.1088 5.46065 43.0053 5.65001 41.9841 6.07424C40.9629 6.49848 40.0501 7.14673 39.313 7.9711C37.8455 9.85654 37.1153 12.2122 37.259 14.5971C37.259 17.5571 37.9657 19.8321 39.379 21.4221C40.1151 22.2465 41.027 22.8948 42.0474 23.3193C43.0677 23.7437 44.1705 23.9333 45.274 23.8741C47.1175 23.945 48.9333 23.4093 50.443 22.3491C51.8544 21.3165 52.845 19.8085 53.232 18.1031H49.243C48.655 19.7681 47.155 20.1111 45.543 20.0291M45.343 9.36108C48.19 9.32308 48.632 11.7461 48.722 12.9391H41.965C41.965 12.9391 41.908 9.42508 45.344 9.36108" fill="white"/>
<path d="M66.158 18.111H70.513C70.0878 19.8224 69.0811 21.3328 67.6652 22.384C66.2494 23.4353 64.5123 23.962 62.751 23.874C56.172 23.874 54.551 18.5939 54.551 15.1249C54.551 11.6559 55.167 5.72994 62.493 5.52494C64.279 5.38556 66.0559 5.89007 67.5021 6.94712C68.9484 8.00418 69.9686 9.54397 70.378 11.2879H65.742C65.742 11.2879 65.292 9.30496 62.532 9.36796C59.772 9.43096 59.051 12.022 59.051 14.485C59.051 16.948 59.664 20.032 62.728 20.032C65.642 20.12 65.899 18.545 66.156 18.111" fill="white"/>
<path d="M76.134 10.6291H78.858V5.98513H76.142V3.00411C76.1605 2.70881 76.1172 2.4129 76.0148 2.13531C75.9124 1.85771 75.7532 1.60456 75.5473 1.39202C75.3415 1.17949 75.0935 1.01224 74.8193 0.901023C74.5452 0.789804 74.2508 0.737047 73.955 0.746116H71.569V20.2261C71.569 22.2581 72.355 23.4731 74.062 23.4731H76.135L76.134 10.6291Z" fill="white"/>
<path d="M83.711 23.5071V14.4301C83.6658 13.9071 83.7245 13.3803 83.8836 12.88C84.0426 12.3798 84.299 11.9159 84.638 11.5151C85.0276 11.1792 85.4802 10.9243 85.9693 10.7651C86.4584 10.606 86.9744 10.5458 87.487 10.5881H89.012V5.88306C87.6173 5.85752 86.2253 6.01383 84.871 6.34806C83.8044 6.64198 82.8035 7.13646 81.922 7.80506C81.0037 8.5563 80.2866 9.52394 79.835 10.621C79.2885 12.0008 79.0292 13.4776 79.073 14.961V23.5071H83.711Z" fill="white"/>
<path d="M90.323 5.91406H94.962V17.1781C94.9334 17.5857 94.9926 17.9947 95.1356 18.3775C95.2786 18.7603 95.502 19.108 95.7908 19.3971C96.0796 19.6862 96.4271 19.9099 96.8097 20.0533C97.1924 20.1966 97.6013 20.2562 98.009 20.2281C98.4088 20.2572 98.8103 20.2032 99.1882 20.0694C99.5661 19.9356 99.9121 19.7249 100.204 19.4506C100.497 19.1763 100.729 18.8444 100.887 18.4758C101.044 18.1072 101.124 17.7099 101.12 17.3091V8.10107C101.12 8.10107 101.277 5.91507 103.288 5.91507H105.699C105.699 5.91507 105.699 16.2771 105.699 16.3761C105.667 16.9461 106.307 23.8761 98.014 23.8461C89.798 23.8461 90.381 16.8371 90.328 16.4241L90.323 5.91406Z" fill="white"/>
<path d="M122.44 23.567H117.845V12.248C117.887 11.8295 117.834 11.407 117.69 11.0118C117.546 10.6166 117.316 10.2587 117.015 9.96464C116.714 9.67057 116.352 9.44783 115.953 9.31288C115.555 9.17792 115.131 9.13421 114.714 9.18498C114.305 9.15734 113.894 9.21762 113.51 9.3618C113.126 9.50598 112.777 9.73072 112.487 10.0209C112.197 10.311 111.973 10.6599 111.829 11.044C111.685 11.4282 111.625 11.8387 111.653 12.248V23.568H106.99V13.179C106.99 10.161 107.89 8.31898 109.355 7.11998C110.872 6.01653 112.705 5.43255 114.581 5.45497C115.59 5.4538 116.597 5.56585 117.581 5.78898C118.563 6.01415 119.476 6.47086 120.245 7.12098C120.929 6.53534 121.737 6.1139 122.609 5.88896C123.53 5.62449 124.481 5.47933 125.439 5.45698C131.124 5.42698 133.406 8.02998 133.595 8.86598V23.566H130.964C130.666 23.5704 130.369 23.5149 130.093 23.4028C129.816 23.2906 129.565 23.1241 129.354 22.9131C129.143 22.702 128.976 22.4508 128.864 22.1742C128.752 21.8977 128.697 21.6014 128.701 21.303V12.248C128.712 10.964 128.263 9.18498 125.57 9.18498C125.155 9.14527 124.736 9.19666 124.343 9.33558C123.95 9.47451 123.591 9.69762 123.293 9.9893C122.995 10.281 122.765 10.6342 122.617 11.0243C122.47 11.4145 122.409 11.8321 122.44 12.248V23.567Z" fill="white"/>
<path d="M134.887 8.85498V23.545L144.565 16.201L134.887 8.85498Z" fill="#0D6EFD"/>
</g>
<path d="M154.565 0.162598V30.0396" stroke="white"/>
<path d="M169.043 12.2695H166.657L166.209 13.6011H164.794L167.105 7.12354H168.634L170.928 13.6011H169.461L169.043 12.2695ZM168.665 11.1533L167.857 8.60449L167.022 11.1533H168.665ZM175.586 11.105V7.12354H176.962V11.105C176.962 11.7935 176.855 12.3296 176.641 12.7134C176.243 13.4165 175.482 13.7681 174.36 13.7681C173.238 13.7681 172.477 13.4165 172.075 12.7134C171.861 12.3296 171.754 11.7935 171.754 11.105V7.12354H173.13V11.105C173.13 11.5503 173.183 11.8755 173.288 12.0806C173.452 12.4438 173.81 12.6255 174.36 12.6255C174.908 12.6255 175.264 12.4438 175.428 12.0806C175.534 11.8755 175.586 11.5503 175.586 11.105ZM182.965 7.12354V8.27051H181.027V13.6011H179.665V8.27051H177.718V7.12354H182.965ZM187.623 13.6011V10.7095H185.092V13.6011H183.752V7.12354H185.092V9.59326H187.623V7.12354H188.968V13.6011H187.623ZM193.129 13.7812C192.204 13.7812 191.496 13.5293 191.007 13.0254C190.351 12.4072 190.023 11.5166 190.023 10.3535C190.023 9.16699 190.351 8.27637 191.007 7.68164C191.496 7.17773 192.204 6.92578 193.129 6.92578C194.055 6.92578 194.763 7.17773 195.252 7.68164C195.905 8.27637 196.232 9.16699 196.232 10.3535C196.232 11.5166 195.905 12.4072 195.252 13.0254C194.763 13.5293 194.055 13.7812 193.129 13.7812ZM194.408 12.041C194.722 11.6455 194.878 11.083 194.878 10.3535C194.878 9.62695 194.72 9.06592 194.404 8.67041C194.09 8.27197 193.666 8.07275 193.129 8.07275C192.593 8.07275 192.166 8.27051 191.846 8.66602C191.527 9.06152 191.367 9.62402 191.367 10.3535C191.367 11.083 191.527 11.6455 191.846 12.041C192.166 12.4365 192.593 12.6343 193.129 12.6343C193.666 12.6343 194.092 12.4365 194.408 12.041ZM200.02 11.061H198.623V13.6011H197.3V7.12354H200.477C200.931 7.13232 201.28 7.18799 201.523 7.29053C201.769 7.39307 201.977 7.54395 202.147 7.74316C202.288 7.90723 202.399 8.08887 202.481 8.28809C202.563 8.4873 202.604 8.71436 202.604 8.96924C202.604 9.27686 202.526 9.58008 202.371 9.87891C202.216 10.1748 201.96 10.3843 201.602 10.5073C201.901 10.6274 202.112 10.7988 202.235 11.0215C202.361 11.2412 202.424 11.5781 202.424 12.0322V12.4673C202.424 12.7632 202.436 12.9639 202.459 13.0693C202.494 13.2363 202.576 13.3594 202.705 13.4385V13.6011H201.215C201.174 13.4575 201.145 13.3418 201.128 13.2539C201.092 13.0723 201.073 12.8862 201.07 12.6958L201.062 12.0938C201.056 11.6807 200.98 11.4053 200.833 11.2676C200.69 11.1299 200.419 11.061 200.02 11.061ZM200.842 9.8833C201.111 9.76025 201.246 9.51709 201.246 9.15381C201.246 8.76123 201.116 8.49756 200.855 8.36279C200.709 8.28662 200.489 8.24854 200.196 8.24854H198.623V9.98877H200.156C200.461 9.98877 200.69 9.95361 200.842 9.8833ZM203.668 7.12354H205.012V13.6011H203.668V7.12354ZM210.861 13.6011H205.821V12.4585L209.165 8.27051H205.904V7.12354H210.853V8.20898L207.464 12.4585H210.861V13.6011ZM216.289 10.771H213.142V12.4365H216.728V13.6011H211.819V7.12354H216.57V8.27051H213.142V9.646H216.289V10.771ZM220.573 13.6011H217.783V7.12354H220.573C220.975 7.12939 221.309 7.17627 221.575 7.26416C222.029 7.41357 222.397 7.6875 222.678 8.08594C222.904 8.4082 223.058 8.75684 223.14 9.13184C223.222 9.50684 223.263 9.86426 223.263 10.2041C223.263 11.0654 223.09 11.7949 222.744 12.3926C222.275 13.1982 221.552 13.6011 220.573 13.6011ZM221.58 8.77588C221.372 8.42432 220.96 8.24854 220.345 8.24854H219.097V12.4761H220.345C220.983 12.4761 221.429 12.1611 221.681 11.5312C221.818 11.1855 221.887 10.7739 221.887 10.2964C221.887 9.63721 221.785 9.13037 221.58 8.77588Z" fill="white"/>
<path d="M168.002 20.061H166.604V22.6011H165.281V16.1235H168.459C168.913 16.1323 169.261 16.188 169.504 16.2905C169.751 16.3931 169.959 16.5439 170.128 16.7432C170.269 16.9072 170.38 17.0889 170.462 17.2881C170.544 17.4873 170.586 17.7144 170.586 17.9692C170.586 18.2769 170.508 18.5801 170.353 18.8789C170.197 19.1748 169.941 19.3843 169.584 19.5073C169.882 19.6274 170.093 19.7988 170.216 20.0215C170.342 20.2412 170.405 20.5781 170.405 21.0322V21.4673C170.405 21.7632 170.417 21.9639 170.44 22.0693C170.476 22.2363 170.558 22.3594 170.687 22.4385V22.6011H169.197C169.156 22.4575 169.127 22.3418 169.109 22.2539C169.074 22.0723 169.055 21.8862 169.052 21.6958L169.043 21.0938C169.037 20.6807 168.961 20.4053 168.815 20.2676C168.671 20.1299 168.4 20.061 168.002 20.061ZM168.823 18.8833C169.093 18.7603 169.228 18.5171 169.228 18.1538C169.228 17.7612 169.097 17.4976 168.836 17.3628C168.69 17.2866 168.47 17.2485 168.177 17.2485H166.604V18.9888H168.138C168.442 18.9888 168.671 18.9536 168.823 18.8833ZM176.263 19.771H173.117V21.4365H176.703V22.6011H171.794V16.1235H176.544V17.2705H173.117V18.646H176.263V19.771ZM180.108 21.665C180.428 21.665 180.687 21.6299 180.886 21.5596C181.264 21.4248 181.453 21.1743 181.453 20.8081C181.453 20.5942 181.359 20.4287 181.172 20.3115C180.984 20.1973 180.69 20.0962 180.289 20.0083L179.603 19.8545C178.929 19.7021 178.463 19.5366 178.206 19.3579C177.769 19.0591 177.551 18.5918 177.551 17.9561C177.551 17.376 177.762 16.894 178.184 16.5103C178.606 16.1265 179.225 15.9346 180.043 15.9346C180.725 15.9346 181.307 16.1162 181.787 16.4795C182.271 16.8398 182.524 17.3643 182.547 18.0527H181.247C181.223 17.6631 181.053 17.3862 180.737 17.2222C180.526 17.1138 180.264 17.0596 179.95 17.0596C179.602 17.0596 179.323 17.1299 179.115 17.2705C178.907 17.4111 178.803 17.6074 178.803 17.8594C178.803 18.0908 178.906 18.2637 179.111 18.3779C179.243 18.4541 179.524 18.5435 179.955 18.646L181.071 18.9141C181.56 19.0312 181.929 19.188 182.178 19.3843C182.565 19.689 182.758 20.1299 182.758 20.707C182.758 21.2988 182.531 21.791 182.077 22.1836C181.626 22.5732 180.987 22.7681 180.161 22.7681C179.317 22.7681 178.654 22.5762 178.17 22.1924C177.687 21.8057 177.445 21.2754 177.445 20.6016H178.737C178.778 20.8975 178.859 21.1187 178.979 21.2651C179.199 21.5317 179.575 21.665 180.108 21.665ZM188.269 19.771H185.123V21.4365H188.709V22.6011H183.8V16.1235H188.55V17.2705H185.123V18.646H188.269V19.771ZM189.763 16.1235H191.117V21.4365H194.325V22.6011H189.763V16.1235ZM195.265 16.1235H196.619V21.4365H199.827V22.6011H195.265V16.1235ZM205.276 19.771H202.129V21.4365H205.715V22.6011H200.807V16.1235H205.557V17.2705H202.129V18.646H205.276V19.771ZM209.521 20.061H208.124V22.6011H206.801V16.1235H209.978C210.432 16.1323 210.781 16.188 211.024 16.2905C211.27 16.3931 211.478 16.5439 211.648 16.7432C211.789 16.9072 211.9 17.0889 211.982 17.2881C212.064 17.4873 212.105 17.7144 212.105 17.9692C212.105 18.2769 212.027 18.5801 211.872 18.8789C211.717 19.1748 211.461 19.3843 211.103 19.5073C211.402 19.6274 211.613 19.7988 211.736 20.0215C211.862 20.2412 211.925 20.5781 211.925 21.0322V21.4673C211.925 21.7632 211.937 21.9639 211.96 22.0693C211.995 22.2363 212.077 22.3594 212.206 22.4385V22.6011H210.716C210.675 22.4575 210.646 22.3418 210.628 22.2539C210.593 22.0723 210.574 21.8862 210.571 21.6958L210.563 21.0938C210.557 20.6807 210.481 20.4053 210.334 20.2676C210.19 20.1299 209.919 20.061 209.521 20.061ZM210.343 18.8833C210.612 18.7603 210.747 18.5171 210.747 18.1538C210.747 17.7612 210.617 17.4976 210.356 17.3628C210.21 17.2866 209.99 17.2485 209.697 17.2485H208.124V18.9888H209.657C209.962 18.9888 210.19 18.9536 210.343 18.8833Z" fill="white"/>
</svg>
