<svg width="102" height="38" viewBox="0 0 102 38" fill="none" xmlns="http://www.w3.org/2000/svg">
<mask id="mask0_7723_12573" style="mask-type:luminance" maskUnits="userSpaceOnUse" x="0" y="8" width="102" height="22">
<path d="M101.585 8.74133H0V29.9913H101.585V8.74133Z" fill="white"/>
</mask>
<g mask="url(#mask0_7723_12573)">
<path d="M1.86224 24.2656C3.23444 25.2658 4.9179 25.7448 6.6111 25.6168C8.29549 25.7228 9.9671 25.2636 11.3609 24.3119C11.922 23.8314 12.3649 23.2282 12.6557 22.5491C12.9464 21.87 13.0771 21.1331 13.0376 20.3955C13.0545 19.6483 12.8782 18.9094 12.5257 18.2504C12.1621 17.6075 11.617 17.086 10.9585 16.7512C10.5683 16.5552 10.1601 16.3974 9.73952 16.2798C9.16749 16.1052 6.32804 15.3291 6.04104 15.2531C4.46302 14.8675 3.45407 14.3389 3.44618 13.4019C3.52804 11.5901 5.21554 11.4432 6.14755 11.4432C6.9529 11.3997 7.75137 11.612 8.42878 12.0497C8.71146 12.2497 8.9404 12.5164 9.09525 12.8261C9.2501 13.1358 9.32606 13.4789 9.31641 13.825H12.4725C12.4671 13.1139 12.3155 12.4115 12.027 11.7615C11.7386 11.1115 11.3195 10.5277 10.7958 10.0466C9.53983 9.10207 7.98699 8.63883 6.41879 8.74085C4.78464 8.62945 3.16073 9.07287 1.80998 9.99932C1.28751 10.4349 0.873114 10.9857 0.599319 11.6084C0.325523 12.2311 0.199771 12.9088 0.231954 13.5883C0.189639 14.2954 0.330219 15.0014 0.640132 15.6383C0.950046 16.2753 1.41884 16.8216 2.00131 17.2247C2.99622 17.7401 4.06373 18.1013 5.16722 18.2957L6.42568 18.5699C8.60926 19.1025 9.86181 19.7781 9.82236 20.859C9.83224 21.1501 9.76931 21.439 9.63928 21.6996C9.50925 21.9601 9.31624 22.1841 9.07775 22.3512C8.41238 22.7273 7.65345 22.9056 6.89022 22.8651C5.9887 22.9159 5.09339 22.6879 4.32593 22.2122C4.0113 21.9876 3.75153 21.6947 3.56605 21.3555C3.38057 21.0163 3.27419 20.6396 3.25485 20.2535H0.000181477C-0.0062339 21.0182 0.157517 21.7747 0.479573 22.4682C0.801628 23.1618 1.27392 23.7751 1.86224 24.2636" fill="#003057"/>
<path d="M22.2178 19.218C22.2178 18 21.9949 15.4229 19.5046 15.4229C17.1375 15.4229 16.8841 17.9379 16.8841 19.218C16.8841 22.4599 18.7254 22.8722 19.5983 22.8722C21.8598 22.8722 22.2178 20.4696 22.2178 19.218ZM16.8841 28.4011C16.886 28.6106 16.8463 28.8184 16.7671 29.0123C16.6879 29.2062 16.571 29.3825 16.423 29.5307C16.275 29.679 16.099 29.7963 15.9052 29.8759C15.7114 29.9554 15.5037 29.9955 15.2942 29.9939H13.7043V18.3265C13.8888 15.2227 15.0161 12.7492 19.7205 12.5805C20.5426 12.5568 21.3601 12.7105 22.1173 13.0314C22.8745 13.3522 23.5537 13.8325 24.1084 14.4396C25.0665 15.7886 25.5377 17.4231 25.4448 19.075C25.5247 20.78 25.0305 22.4625 24.0414 23.8535C23.6265 24.4163 23.083 24.8716 22.4562 25.1815C21.8294 25.4913 21.1376 25.6467 20.4385 25.6347C19.1652 25.6779 17.9136 25.2963 16.8811 24.5498C16.8811 24.6563 16.8811 28.4031 16.8811 28.4031" fill="#003057"/>
<path d="M32.0083 22.8361C31.2015 22.7946 29.6659 22.6388 29.5249 19.9463H37.5925C37.5925 19.8644 37.5925 18.9788 37.5925 18.9768C37.65 17.294 37.1238 15.6431 36.1032 14.3039C35.5442 13.7297 34.8681 13.2826 34.1207 12.9933C33.3734 12.704 32.5725 12.5791 31.7726 12.6273C30.9971 12.5861 30.2222 12.7196 29.5053 13.018C28.7883 13.3164 28.1475 13.772 27.6302 14.3513C26.599 15.6785 26.0862 17.3356 26.1873 19.0133C26.0722 20.7432 26.6029 22.4543 27.6766 23.8154C28.1935 24.3952 28.8342 24.8513 29.5512 25.1499C30.2682 25.4485 31.0433 25.582 31.8189 25.5404C33.1143 25.5903 34.3903 25.214 35.4513 24.4693C36.4434 23.7424 37.1394 22.6814 37.411 21.4819H34.6081C34.1948 22.6536 33.1405 22.8942 32.0063 22.838M31.8672 15.3316C33.8674 15.305 34.179 17.0082 34.2412 17.8485H29.4923C29.478 17.5262 29.5286 17.2043 29.641 16.9018C29.7535 16.5994 29.9255 16.3226 30.1469 16.0879C30.3682 15.8532 30.6345 15.6653 30.9299 15.5354C31.2252 15.4054 31.5446 15.3362 31.8672 15.3316Z" fill="#003057"/>
<path d="M46.4906 21.4853H49.548C49.2498 22.6885 48.5428 23.7507 47.5479 24.4903C46.553 25.2299 45.3322 25.6009 44.094 25.5398C39.4714 25.5398 38.3333 21.8235 38.3333 19.3845C38.3333 16.9455 38.7662 12.7765 43.9135 12.6286C45.1691 12.5312 46.4182 12.8864 47.4345 13.6302C48.4508 14.3739 49.1674 15.4569 49.4543 16.6831H46.1997C46.0451 16.227 45.7334 15.8407 45.3202 15.5933C44.9069 15.3459 44.4191 15.2536 43.9441 15.3329C42.0041 15.3773 41.4982 17.1999 41.4982 18.9338C41.4982 20.6676 41.9282 22.8374 44.0822 22.8374C46.1296 22.8996 46.3101 21.791 46.4916 21.4862" fill="#003057"/>
<path d="M53.5001 16.2191H55.4144V12.9516H53.504V10.8538C53.5171 10.6462 53.4868 10.4381 53.4149 10.2429C53.343 10.0477 53.2312 9.86957 53.0866 9.72003C52.942 9.57048 52.7677 9.45277 52.575 9.37441C52.3823 9.29605 52.1753 9.25876 51.9674 9.26494H50.2908V22.974C50.2908 24.4041 50.8431 25.2582 52.0424 25.2582H53.4991L53.5001 16.2191Z" fill="#003057"/>
<path d="M58.8238 25.2842V18.8981C58.7921 18.5301 58.8333 18.1594 58.9452 17.8074C59.057 17.4554 59.2373 17.1289 59.4757 16.8467C59.7494 16.6104 60.0674 16.431 60.4112 16.3189C60.7549 16.2068 61.1175 16.1643 61.4778 16.1938H62.546V12.8839C61.5661 12.8656 60.588 12.9754 59.6365 13.2104C58.8873 13.4172 58.1843 13.765 57.5654 14.2351C56.9199 14.7639 56.4159 15.4447 56.0988 16.2165C55.7142 17.1886 55.532 18.229 55.5632 19.2739V25.2901L58.8238 25.2842Z" fill="#003057"/>
<path d="M63.47 12.9037H66.7296V20.8283C66.7094 21.1148 66.751 21.4024 66.8514 21.6715C66.9519 21.9406 67.1088 22.1851 67.3118 22.3884C67.5147 22.5917 67.7589 22.7491 68.0278 22.85C68.2967 22.9509 68.5842 22.993 68.8708 22.9734C69.1519 22.994 69.4343 22.9561 69.7001 22.862C69.9658 22.7678 70.2092 22.6196 70.4147 22.4266C70.6202 22.2336 70.7834 22 70.894 21.7407C71.0046 21.4814 71.0602 21.2019 71.0573 20.92V14.4423C71.0573 14.4423 71.1677 12.9047 72.5801 12.9047H74.2705C74.2705 12.9047 74.2705 20.1951 74.2705 20.2651C74.2479 20.6665 74.6976 25.5407 68.8708 25.5209C63.0972 25.5209 63.5065 20.5896 63.47 20.2937V12.9037Z" fill="#003057"/>
<path d="M86.0395 25.323H82.8115V17.358C82.841 17.0637 82.804 16.7666 82.7031 16.4886C82.6023 16.2106 82.4403 15.9588 82.229 15.7519C82.0177 15.545 81.7626 15.3882 81.4826 15.2932C81.2025 15.1982 80.9047 15.1674 80.6112 15.203C80.3234 15.1839 80.0349 15.2266 79.765 15.3282C79.4951 15.4298 79.25 15.588 79.0463 15.7921C78.8426 15.9962 78.6848 16.2415 78.5837 16.5116C78.4826 16.7817 78.4405 17.0703 78.4601 17.358V25.323H75.1838V18.0138C75.108 17.2227 75.2189 16.4249 75.5076 15.6844C75.7962 14.9439 76.2545 14.2814 76.8456 13.7502C77.9115 12.9739 79.1999 12.5629 80.5185 12.5786C81.2269 12.5778 81.9332 12.6565 82.6241 12.8133C83.3146 12.9716 83.9571 13.2928 84.498 13.7502C84.9781 13.3382 85.5463 13.0416 86.1589 12.8833C86.8062 12.6969 87.4747 12.5945 88.1482 12.5786C92.1435 12.5578 93.7462 14.3893 93.8793 14.9772V25.322H92.0301C91.8202 25.3251 91.6119 25.286 91.4174 25.207C91.2229 25.128 91.0463 25.0107 90.898 24.8622C90.7497 24.7136 90.6328 24.5368 90.5542 24.3422C90.4755 24.1475 90.4368 23.9391 90.4402 23.7292V17.358C90.4762 17.0624 90.4437 16.7624 90.3451 16.4814C90.2466 16.2004 90.0847 15.9458 89.8719 15.7375C89.6591 15.5291 89.4012 15.3725 89.1182 15.2798C88.8352 15.1871 88.5347 15.1609 88.2399 15.203C87.9481 15.1755 87.6538 15.212 87.3775 15.31C87.1013 15.4079 86.8497 15.565 86.6404 15.7702C86.4311 15.9753 86.2691 16.2237 86.1656 16.4979C86.0622 16.7722 86.0198 17.0657 86.0415 17.358L86.0395 25.323Z" fill="#003057"/>
<path d="M94.7852 14.9718V25.3078L101.59 20.1408L94.7852 14.9718Z" fill="#0D6EFD"/>
</g>
</svg>
