<svg width="18" height="26" viewBox="0 0 18 26" fill="none" xmlns="http://www.w3.org/2000/svg">
<path id="zap-fast-svgrepo-com" d="M10.3347 1L1.53854 13.3147C1.14901 13.8597 0.954243 14.1325 0.9606 14.3596C0.964198 14.4574 0.989258 14.5531 1.034 14.6401C1.07875 14.7271 1.14208 14.8032 1.21952 14.863C1.39925 15.0017 1.73446 15.0017 2.40429 15.0017H8.99855L7.66525 25L16.4615 12.6853C16.851 12.1403 17.0457 11.8675 17.0394 11.6404C17.0358 11.5426 17.0107 11.4469 16.966 11.3599C16.9212 11.2729 16.8579 11.1968 16.7805 11.137C16.6007 10.9983 16.2655 10.9983 15.5957 10.9983H9.00144L10.3347 1Z" fill="#0099D8" stroke="#0099D8" stroke-width="1.15587" stroke-linecap="round" stroke-linejoin="round"/>
</svg>
